<svg version="1.2" xmlns="http://www.w3.org/2000/svg" viewBox="0 0 409 409" width="409" height="409">
	<title>assistantBackground3-svg</title>
	<defs>
		<clipPath clipPathUnits="userSpaceOnUse" id="cp1">
			<path d="m55.79 408.96l-55.7-353.17 353.18-55.7 55.69 353.18z"/>
		</clipPath>
		<linearGradient id="g1" x2="1" gradientUnits="userSpaceOnUse" gradientTransform="matrix(-26.613,-168.751,141.854,-22.371,217.832,288.905)">
			<stop offset="0" stop-color="#00deed"/>
			<stop offset="1" stop-color="#ec00e1"/>
		</linearGradient>
		<linearGradient id="g2" x2="1" gradientUnits="userSpaceOnUse" gradientTransform="matrix(-27.225,-172.632,149.003,-23.499,218.137,290.845)">
			<stop offset="0" stop-color="#00deed"/>
			<stop offset="1" stop-color="#ec00e1"/>
		</linearGradient>
		<linearGradient id="g3" x2="1" gradientUnits="userSpaceOnUse" gradientTransform="matrix(-27.57,-174.818,159.245,-25.114,218.31,291.937)">
			<stop offset="0" stop-color="#00deed"/>
			<stop offset="1" stop-color="#ec00e1"/>
		</linearGradient>
		<linearGradient id="g4" x2="1" gradientUnits="userSpaceOnUse" gradientTransform="matrix(-27.688,-175.566,172.162,-27.151,218.369,292.315)">
			<stop offset="0" stop-color="#00deed"/>
			<stop offset="1" stop-color="#ec00e1"/>
		</linearGradient>
		<linearGradient id="g5" x2="1" gradientUnits="userSpaceOnUse" gradientTransform="matrix(-27.699,-175.638,187.11,-29.508,218.375,292.347)">
			<stop offset="0" stop-color="#00deed"/>
			<stop offset="1" stop-color="#ec00e1"/>
		</linearGradient>
		<linearGradient id="g6" x2="1" gradientUnits="userSpaceOnUse" gradientTransform="matrix(-27.756,-175.993,203.003,-32.016,218.404,292.527)">
			<stop offset="0" stop-color="#00deed"/>
			<stop offset="1" stop-color="#ec00e1"/>
		</linearGradient>
		<linearGradient id="g7" x2="1" gradientUnits="userSpaceOnUse" gradientTransform="matrix(-28.042,-177.807,218.813,-34.509,218.547,293.435)">
			<stop offset="0" stop-color="#00deed"/>
			<stop offset="1" stop-color="#ec00e1"/>
		</linearGradient>
		<linearGradient id="g8" x2="1" gradientUnits="userSpaceOnUse" gradientTransform="matrix(-28.765,-182.393,233.688,-36.855,218.908,295.725)">
			<stop offset="0" stop-color="#00deed"/>
			<stop offset="1" stop-color="#ec00e1"/>
		</linearGradient>
		<linearGradient id="g9" x2="1" gradientUnits="userSpaceOnUse" gradientTransform="matrix(-30.08,-190.738,246.687,-38.903,219.565,299.901)">
			<stop offset="0" stop-color="#00deed"/>
			<stop offset="1" stop-color="#ec00e1"/>
		</linearGradient>
		<linearGradient id="g10" x2="1" gradientUnits="userSpaceOnUse" gradientTransform="matrix(-32.037,-203.139,257.219,-40.566,220.544,306.099)">
			<stop offset="0" stop-color="#00deed"/>
			<stop offset="1" stop-color="#ec00e1"/>
		</linearGradient>
		<linearGradient id="g11" x2="1" gradientUnits="userSpaceOnUse" gradientTransform="matrix(-34.565,-219.174,265.077,-41.804,221.809,314.116)">
			<stop offset="0" stop-color="#00deed"/>
			<stop offset="1" stop-color="#ec00e1"/>
		</linearGradient>
		<linearGradient id="g12" x2="1" gradientUnits="userSpaceOnUse" gradientTransform="matrix(-37.542,-238.051,269.75,-42.541,223.297,323.555)">
			<stop offset="0" stop-color="#00deed"/>
			<stop offset="1" stop-color="#ec00e1"/>
		</linearGradient>
		<linearGradient id="g13" x2="1" gradientUnits="userSpaceOnUse" gradientTransform="matrix(-40.755,-258.426,271.911,-42.882,224.902,333.742)">
			<stop offset="0" stop-color="#00deed"/>
			<stop offset="1" stop-color="#ec00e1"/>
		</linearGradient>
		<linearGradient id="g14" x2="1" gradientUnits="userSpaceOnUse" gradientTransform="matrix(-44.031,-279.194,272.424,-42.963,226.541,344.126)">
			<stop offset="0" stop-color="#00deed"/>
			<stop offset="1" stop-color="#ec00e1"/>
		</linearGradient>
		<linearGradient id="g15" x2="1" gradientUnits="userSpaceOnUse" gradientTransform="matrix(-47.139,-298.901,272.518,-42.978,228.096,353.98)">
			<stop offset="0" stop-color="#00deed"/>
			<stop offset="1" stop-color="#ec00e1"/>
		</linearGradient>
		<linearGradient id="g16" x2="1" gradientUnits="userSpaceOnUse" gradientTransform="matrix(-49.888,-316.336,273.87,-43.191,229.47,362.697)">
			<stop offset="0" stop-color="#00deed"/>
			<stop offset="1" stop-color="#ec00e1"/>
		</linearGradient>
		<linearGradient id="g17" x2="1" gradientUnits="userSpaceOnUse" gradientTransform="matrix(-52.159,-330.732,278.461,-43.915,230.604,369.895)">
			<stop offset="0" stop-color="#00deed"/>
			<stop offset="1" stop-color="#ec00e1"/>
		</linearGradient>
		<linearGradient id="g18" x2="1" gradientUnits="userSpaceOnUse" gradientTransform="matrix(-53.859,-341.509,288.164,-45.446,231.455,375.283)">
			<stop offset="0" stop-color="#00deed"/>
			<stop offset="1" stop-color="#ec00e1"/>
		</linearGradient>
		<linearGradient id="g19" x2="1" gradientUnits="userSpaceOnUse" gradientTransform="matrix(-54.968,-348.548,304.074,-47.954,232.009,378.802)">
			<stop offset="0" stop-color="#00deed"/>
			<stop offset="1" stop-color="#ec00e1"/>
		</linearGradient>
		<linearGradient id="g20" x2="1" gradientUnits="userSpaceOnUse" gradientTransform="matrix(-55.543,-352.188,326.092,-51.428,232.3,380.639)">
			<stop offset="0" stop-color="#00deed"/>
			<stop offset="1" stop-color="#ec00e1"/>
		</linearGradient>
		<linearGradient id="g21" x2="1" gradientUnits="userSpaceOnUse" gradientTransform="matrix(-55.697,-353.172,353.177,-55.698,232.374,381.115)">
			<stop offset="0" stop-color="#00deed"/>
			<stop offset="1" stop-color="#ec00e1"/>
		</linearGradient>
		<clipPath clipPathUnits="userSpaceOnUse" id="cp2">
			<path d="m55.79 408.96l-55.7-353.17 353.18-55.7 55.69 353.18z"/>
		</clipPath>
		<linearGradient id="g22" x2="1" gradientUnits="userSpaceOnUse" gradientTransform="matrix(-26.613,-168.751,141.854,-22.371,217.832,288.905)">
			<stop offset="0" stop-color="#00deed"/>
			<stop offset="1" stop-color="#ec00e1"/>
		</linearGradient>
		<linearGradient id="g23" x2="1" gradientUnits="userSpaceOnUse" gradientTransform="matrix(-27.225,-172.632,149.003,-23.499,218.137,290.845)">
			<stop offset="0" stop-color="#00deed"/>
			<stop offset="1" stop-color="#ec00e1"/>
		</linearGradient>
		<linearGradient id="g24" x2="1" gradientUnits="userSpaceOnUse" gradientTransform="matrix(-27.57,-174.818,159.245,-25.114,218.31,291.937)">
			<stop offset="0" stop-color="#00deed"/>
			<stop offset="1" stop-color="#ec00e1"/>
		</linearGradient>
		<linearGradient id="g25" x2="1" gradientUnits="userSpaceOnUse" gradientTransform="matrix(-27.688,-175.566,172.162,-27.151,218.369,292.315)">
			<stop offset="0" stop-color="#00deed"/>
			<stop offset="1" stop-color="#ec00e1"/>
		</linearGradient>
		<linearGradient id="g26" x2="1" gradientUnits="userSpaceOnUse" gradientTransform="matrix(-27.699,-175.638,187.11,-29.508,218.375,292.347)">
			<stop offset="0" stop-color="#00deed"/>
			<stop offset="1" stop-color="#ec00e1"/>
		</linearGradient>
		<linearGradient id="g27" x2="1" gradientUnits="userSpaceOnUse" gradientTransform="matrix(-27.756,-175.993,203.003,-32.016,218.404,292.527)">
			<stop offset="0" stop-color="#00deed"/>
			<stop offset="1" stop-color="#ec00e1"/>
		</linearGradient>
		<linearGradient id="g28" x2="1" gradientUnits="userSpaceOnUse" gradientTransform="matrix(-28.042,-177.807,218.813,-34.509,218.547,293.435)">
			<stop offset="0" stop-color="#00deed"/>
			<stop offset="1" stop-color="#ec00e1"/>
		</linearGradient>
		<linearGradient id="g29" x2="1" gradientUnits="userSpaceOnUse" gradientTransform="matrix(-28.765,-182.393,233.688,-36.855,218.908,295.725)">
			<stop offset="0" stop-color="#00deed"/>
			<stop offset="1" stop-color="#ec00e1"/>
		</linearGradient>
		<linearGradient id="g30" x2="1" gradientUnits="userSpaceOnUse" gradientTransform="matrix(-30.08,-190.738,246.687,-38.903,219.565,299.901)">
			<stop offset="0" stop-color="#00deed"/>
			<stop offset="1" stop-color="#ec00e1"/>
		</linearGradient>
		<linearGradient id="g31" x2="1" gradientUnits="userSpaceOnUse" gradientTransform="matrix(-32.037,-203.139,257.219,-40.566,220.544,306.099)">
			<stop offset="0" stop-color="#00deed"/>
			<stop offset="1" stop-color="#ec00e1"/>
		</linearGradient>
		<linearGradient id="g32" x2="1" gradientUnits="userSpaceOnUse" gradientTransform="matrix(-34.565,-219.174,265.077,-41.804,221.809,314.116)">
			<stop offset="0" stop-color="#00deed"/>
			<stop offset="1" stop-color="#ec00e1"/>
		</linearGradient>
		<linearGradient id="g33" x2="1" gradientUnits="userSpaceOnUse" gradientTransform="matrix(-37.542,-238.051,269.75,-42.541,223.297,323.555)">
			<stop offset="0" stop-color="#00deed"/>
			<stop offset="1" stop-color="#ec00e1"/>
		</linearGradient>
		<linearGradient id="g34" x2="1" gradientUnits="userSpaceOnUse" gradientTransform="matrix(-40.755,-258.426,271.911,-42.882,224.902,333.742)">
			<stop offset="0" stop-color="#00deed"/>
			<stop offset="1" stop-color="#ec00e1"/>
		</linearGradient>
		<linearGradient id="g35" x2="1" gradientUnits="userSpaceOnUse" gradientTransform="matrix(-44.031,-279.194,272.424,-42.963,226.541,344.126)">
			<stop offset="0" stop-color="#00deed"/>
			<stop offset="1" stop-color="#ec00e1"/>
		</linearGradient>
		<linearGradient id="g36" x2="1" gradientUnits="userSpaceOnUse" gradientTransform="matrix(-47.139,-298.901,272.518,-42.978,228.096,353.98)">
			<stop offset="0" stop-color="#00deed"/>
			<stop offset="1" stop-color="#ec00e1"/>
		</linearGradient>
		<linearGradient id="g37" x2="1" gradientUnits="userSpaceOnUse" gradientTransform="matrix(-49.888,-316.336,273.87,-43.191,229.47,362.697)">
			<stop offset="0" stop-color="#00deed"/>
			<stop offset="1" stop-color="#ec00e1"/>
		</linearGradient>
		<linearGradient id="g38" x2="1" gradientUnits="userSpaceOnUse" gradientTransform="matrix(-52.159,-330.732,278.461,-43.915,230.604,369.895)">
			<stop offset="0" stop-color="#00deed"/>
			<stop offset="1" stop-color="#ec00e1"/>
		</linearGradient>
		<linearGradient id="g39" x2="1" gradientUnits="userSpaceOnUse" gradientTransform="matrix(-53.859,-341.509,288.164,-45.446,231.455,375.283)">
			<stop offset="0" stop-color="#00deed"/>
			<stop offset="1" stop-color="#ec00e1"/>
		</linearGradient>
		<linearGradient id="g40" x2="1" gradientUnits="userSpaceOnUse" gradientTransform="matrix(-54.968,-348.548,304.074,-47.954,232.009,378.802)">
			<stop offset="0" stop-color="#00deed"/>
			<stop offset="1" stop-color="#ec00e1"/>
		</linearGradient>
		<linearGradient id="g41" x2="1" gradientUnits="userSpaceOnUse" gradientTransform="matrix(-55.543,-352.188,326.092,-51.428,232.3,380.639)">
			<stop offset="0" stop-color="#00deed"/>
			<stop offset="1" stop-color="#ec00e1"/>
		</linearGradient>
		<linearGradient id="g42" x2="1" gradientUnits="userSpaceOnUse" gradientTransform="matrix(-55.697,-353.172,353.177,-55.698,232.374,381.115)">
			<stop offset="0" stop-color="#00deed"/>
			<stop offset="1" stop-color="#ec00e1"/>
		</linearGradient>
		<clipPath clipPathUnits="userSpaceOnUse" id="cp3">
			<path d="m55.79 408.96l-55.7-353.17 353.18-55.7 55.69 353.18z"/>
		</clipPath>
		<linearGradient id="g43" x2="1" gradientUnits="userSpaceOnUse" gradientTransform="matrix(-26.613,-168.751,141.854,-22.371,217.832,288.905)">
			<stop offset="0" stop-color="#00deed"/>
			<stop offset="1" stop-color="#ec00e1"/>
		</linearGradient>
		<linearGradient id="g44" x2="1" gradientUnits="userSpaceOnUse" gradientTransform="matrix(-27.225,-172.632,149.003,-23.499,218.137,290.845)">
			<stop offset="0" stop-color="#00deed"/>
			<stop offset="1" stop-color="#ec00e1"/>
		</linearGradient>
		<linearGradient id="g45" x2="1" gradientUnits="userSpaceOnUse" gradientTransform="matrix(-27.57,-174.818,159.245,-25.114,218.31,291.937)">
			<stop offset="0" stop-color="#00deed"/>
			<stop offset="1" stop-color="#ec00e1"/>
		</linearGradient>
		<linearGradient id="g46" x2="1" gradientUnits="userSpaceOnUse" gradientTransform="matrix(-27.688,-175.566,172.162,-27.151,218.369,292.315)">
			<stop offset="0" stop-color="#00deed"/>
			<stop offset="1" stop-color="#ec00e1"/>
		</linearGradient>
		<linearGradient id="g47" x2="1" gradientUnits="userSpaceOnUse" gradientTransform="matrix(-27.699,-175.638,187.11,-29.508,218.375,292.347)">
			<stop offset="0" stop-color="#00deed"/>
			<stop offset="1" stop-color="#ec00e1"/>
		</linearGradient>
		<linearGradient id="g48" x2="1" gradientUnits="userSpaceOnUse" gradientTransform="matrix(-27.756,-175.993,203.003,-32.016,218.404,292.527)">
			<stop offset="0" stop-color="#00deed"/>
			<stop offset="1" stop-color="#ec00e1"/>
		</linearGradient>
		<linearGradient id="g49" x2="1" gradientUnits="userSpaceOnUse" gradientTransform="matrix(-28.042,-177.807,218.813,-34.509,218.547,293.435)">
			<stop offset="0" stop-color="#00deed"/>
			<stop offset="1" stop-color="#ec00e1"/>
		</linearGradient>
		<linearGradient id="g50" x2="1" gradientUnits="userSpaceOnUse" gradientTransform="matrix(-28.765,-182.393,233.688,-36.855,218.908,295.725)">
			<stop offset="0" stop-color="#00deed"/>
			<stop offset="1" stop-color="#ec00e1"/>
		</linearGradient>
		<linearGradient id="g51" x2="1" gradientUnits="userSpaceOnUse" gradientTransform="matrix(-30.08,-190.738,246.687,-38.903,219.565,299.901)">
			<stop offset="0" stop-color="#00deed"/>
			<stop offset="1" stop-color="#ec00e1"/>
		</linearGradient>
		<linearGradient id="g52" x2="1" gradientUnits="userSpaceOnUse" gradientTransform="matrix(-32.037,-203.139,257.219,-40.566,220.544,306.099)">
			<stop offset="0" stop-color="#00deed"/>
			<stop offset="1" stop-color="#ec00e1"/>
		</linearGradient>
		<linearGradient id="g53" x2="1" gradientUnits="userSpaceOnUse" gradientTransform="matrix(-34.565,-219.174,265.077,-41.804,221.809,314.116)">
			<stop offset="0" stop-color="#00deed"/>
			<stop offset="1" stop-color="#ec00e1"/>
		</linearGradient>
		<linearGradient id="g54" x2="1" gradientUnits="userSpaceOnUse" gradientTransform="matrix(-37.542,-238.051,269.75,-42.541,223.297,323.555)">
			<stop offset="0" stop-color="#00deed"/>
			<stop offset="1" stop-color="#ec00e1"/>
		</linearGradient>
		<linearGradient id="g55" x2="1" gradientUnits="userSpaceOnUse" gradientTransform="matrix(-40.755,-258.426,271.911,-42.882,224.902,333.742)">
			<stop offset="0" stop-color="#00deed"/>
			<stop offset="1" stop-color="#ec00e1"/>
		</linearGradient>
		<linearGradient id="g56" x2="1" gradientUnits="userSpaceOnUse" gradientTransform="matrix(-44.031,-279.194,272.424,-42.963,226.541,344.126)">
			<stop offset="0" stop-color="#00deed"/>
			<stop offset="1" stop-color="#ec00e1"/>
		</linearGradient>
		<linearGradient id="g57" x2="1" gradientUnits="userSpaceOnUse" gradientTransform="matrix(-47.139,-298.901,272.518,-42.978,228.096,353.98)">
			<stop offset="0" stop-color="#00deed"/>
			<stop offset="1" stop-color="#ec00e1"/>
		</linearGradient>
		<linearGradient id="g58" x2="1" gradientUnits="userSpaceOnUse" gradientTransform="matrix(-49.888,-316.336,273.87,-43.191,229.47,362.697)">
			<stop offset="0" stop-color="#00deed"/>
			<stop offset="1" stop-color="#ec00e1"/>
		</linearGradient>
		<linearGradient id="g59" x2="1" gradientUnits="userSpaceOnUse" gradientTransform="matrix(-52.159,-330.732,278.461,-43.915,230.604,369.895)">
			<stop offset="0" stop-color="#00deed"/>
			<stop offset="1" stop-color="#ec00e1"/>
		</linearGradient>
		<linearGradient id="g60" x2="1" gradientUnits="userSpaceOnUse" gradientTransform="matrix(-53.859,-341.509,288.164,-45.446,231.455,375.283)">
			<stop offset="0" stop-color="#00deed"/>
			<stop offset="1" stop-color="#ec00e1"/>
		</linearGradient>
		<linearGradient id="g61" x2="1" gradientUnits="userSpaceOnUse" gradientTransform="matrix(-54.968,-348.548,304.074,-47.954,232.009,378.802)">
			<stop offset="0" stop-color="#00deed"/>
			<stop offset="1" stop-color="#ec00e1"/>
		</linearGradient>
		<linearGradient id="g62" x2="1" gradientUnits="userSpaceOnUse" gradientTransform="matrix(-55.543,-352.188,326.092,-51.428,232.3,380.639)">
			<stop offset="0" stop-color="#00deed"/>
			<stop offset="1" stop-color="#ec00e1"/>
		</linearGradient>
		<linearGradient id="g63" x2="1" gradientUnits="userSpaceOnUse" gradientTransform="matrix(-55.697,-353.172,353.177,-55.698,232.374,381.115)">
			<stop offset="0" stop-color="#00deed"/>
			<stop offset="1" stop-color="#ec00e1"/>
		</linearGradient>
		<clipPath clipPathUnits="userSpaceOnUse" id="cp4">
			<path d="m55.79 408.96l-55.7-353.17 353.18-55.7 55.69 353.18z"/>
		</clipPath>
		<linearGradient id="g64" x2="1" gradientUnits="userSpaceOnUse" gradientTransform="matrix(-26.613,-168.751,141.854,-22.371,217.832,288.905)">
			<stop offset="0" stop-color="#00deed"/>
			<stop offset="1" stop-color="#ec00e1"/>
		</linearGradient>
		<linearGradient id="g65" x2="1" gradientUnits="userSpaceOnUse" gradientTransform="matrix(-27.225,-172.632,149.003,-23.499,218.137,290.845)">
			<stop offset="0" stop-color="#00deed"/>
			<stop offset="1" stop-color="#ec00e1"/>
		</linearGradient>
		<linearGradient id="g66" x2="1" gradientUnits="userSpaceOnUse" gradientTransform="matrix(-27.57,-174.818,159.245,-25.114,218.31,291.937)">
			<stop offset="0" stop-color="#00deed"/>
			<stop offset="1" stop-color="#ec00e1"/>
		</linearGradient>
		<linearGradient id="g67" x2="1" gradientUnits="userSpaceOnUse" gradientTransform="matrix(-27.688,-175.566,172.162,-27.151,218.369,292.315)">
			<stop offset="0" stop-color="#00deed"/>
			<stop offset="1" stop-color="#ec00e1"/>
		</linearGradient>
		<linearGradient id="g68" x2="1" gradientUnits="userSpaceOnUse" gradientTransform="matrix(-27.699,-175.638,187.11,-29.508,218.375,292.347)">
			<stop offset="0" stop-color="#00deed"/>
			<stop offset="1" stop-color="#ec00e1"/>
		</linearGradient>
		<linearGradient id="g69" x2="1" gradientUnits="userSpaceOnUse" gradientTransform="matrix(-27.756,-175.993,203.003,-32.016,218.404,292.527)">
			<stop offset="0" stop-color="#00deed"/>
			<stop offset="1" stop-color="#ec00e1"/>
		</linearGradient>
		<linearGradient id="g70" x2="1" gradientUnits="userSpaceOnUse" gradientTransform="matrix(-28.042,-177.807,218.813,-34.509,218.547,293.435)">
			<stop offset="0" stop-color="#00deed"/>
			<stop offset="1" stop-color="#ec00e1"/>
		</linearGradient>
		<linearGradient id="g71" x2="1" gradientUnits="userSpaceOnUse" gradientTransform="matrix(-28.765,-182.393,233.688,-36.855,218.908,295.725)">
			<stop offset="0" stop-color="#00deed"/>
			<stop offset="1" stop-color="#ec00e1"/>
		</linearGradient>
		<linearGradient id="g72" x2="1" gradientUnits="userSpaceOnUse" gradientTransform="matrix(-30.08,-190.738,246.687,-38.903,219.565,299.901)">
			<stop offset="0" stop-color="#00deed"/>
			<stop offset="1" stop-color="#ec00e1"/>
		</linearGradient>
		<linearGradient id="g73" x2="1" gradientUnits="userSpaceOnUse" gradientTransform="matrix(-32.037,-203.139,257.219,-40.566,220.544,306.099)">
			<stop offset="0" stop-color="#00deed"/>
			<stop offset="1" stop-color="#ec00e1"/>
		</linearGradient>
		<linearGradient id="g74" x2="1" gradientUnits="userSpaceOnUse" gradientTransform="matrix(-34.565,-219.174,265.077,-41.804,221.809,314.116)">
			<stop offset="0" stop-color="#00deed"/>
			<stop offset="1" stop-color="#ec00e1"/>
		</linearGradient>
		<linearGradient id="g75" x2="1" gradientUnits="userSpaceOnUse" gradientTransform="matrix(-37.542,-238.051,269.75,-42.541,223.297,323.555)">
			<stop offset="0" stop-color="#00deed"/>
			<stop offset="1" stop-color="#ec00e1"/>
		</linearGradient>
		<linearGradient id="g76" x2="1" gradientUnits="userSpaceOnUse" gradientTransform="matrix(-40.755,-258.426,271.911,-42.882,224.902,333.742)">
			<stop offset="0" stop-color="#00deed"/>
			<stop offset="1" stop-color="#ec00e1"/>
		</linearGradient>
		<linearGradient id="g77" x2="1" gradientUnits="userSpaceOnUse" gradientTransform="matrix(-44.031,-279.194,272.424,-42.963,226.541,344.126)">
			<stop offset="0" stop-color="#00deed"/>
			<stop offset="1" stop-color="#ec00e1"/>
		</linearGradient>
		<linearGradient id="g78" x2="1" gradientUnits="userSpaceOnUse" gradientTransform="matrix(-47.139,-298.901,272.518,-42.978,228.096,353.98)">
			<stop offset="0" stop-color="#00deed"/>
			<stop offset="1" stop-color="#ec00e1"/>
		</linearGradient>
		<linearGradient id="g79" x2="1" gradientUnits="userSpaceOnUse" gradientTransform="matrix(-49.888,-316.336,273.87,-43.191,229.47,362.697)">
			<stop offset="0" stop-color="#00deed"/>
			<stop offset="1" stop-color="#ec00e1"/>
		</linearGradient>
		<linearGradient id="g80" x2="1" gradientUnits="userSpaceOnUse" gradientTransform="matrix(-52.159,-330.732,278.461,-43.915,230.604,369.895)">
			<stop offset="0" stop-color="#00deed"/>
			<stop offset="1" stop-color="#ec00e1"/>
		</linearGradient>
		<linearGradient id="g81" x2="1" gradientUnits="userSpaceOnUse" gradientTransform="matrix(-53.859,-341.509,288.164,-45.446,231.455,375.283)">
			<stop offset="0" stop-color="#00deed"/>
			<stop offset="1" stop-color="#ec00e1"/>
		</linearGradient>
		<linearGradient id="g82" x2="1" gradientUnits="userSpaceOnUse" gradientTransform="matrix(-54.968,-348.548,304.074,-47.954,232.009,378.802)">
			<stop offset="0" stop-color="#00deed"/>
			<stop offset="1" stop-color="#ec00e1"/>
		</linearGradient>
		<linearGradient id="g83" x2="1" gradientUnits="userSpaceOnUse" gradientTransform="matrix(-55.543,-352.188,326.092,-51.428,232.3,380.639)">
			<stop offset="0" stop-color="#00deed"/>
			<stop offset="1" stop-color="#ec00e1"/>
		</linearGradient>
		<linearGradient id="g84" x2="1" gradientUnits="userSpaceOnUse" gradientTransform="matrix(-55.697,-353.172,353.177,-55.698,232.374,381.115)">
			<stop offset="0" stop-color="#00deed"/>
			<stop offset="1" stop-color="#ec00e1"/>
		</linearGradient>
	</defs>
	<style>
		.s0 { opacity: .4;fill: url(#g1) } 
		.s1 { opacity: .4;fill: url(#g2) } 
		.s2 { opacity: .4;fill: url(#g3) } 
		.s3 { opacity: .4;fill: url(#g4) } 
		.s4 { opacity: .4;fill: url(#g5) } 
		.s5 { opacity: .4;fill: url(#g6) } 
		.s6 { opacity: .4;fill: url(#g7) } 
		.s7 { opacity: .4;fill: url(#g8) } 
		.s8 { opacity: .4;fill: url(#g9) } 
		.s9 { opacity: .4;fill: url(#g10) } 
		.s10 { opacity: .4;fill: url(#g11) } 
		.s11 { opacity: .4;fill: url(#g12) } 
		.s12 { opacity: .4;fill: url(#g13) } 
		.s13 { opacity: .4;fill: url(#g14) } 
		.s14 { opacity: .4;fill: url(#g15) } 
		.s15 { opacity: .4;fill: url(#g16) } 
		.s16 { opacity: .4;fill: url(#g17) } 
		.s17 { opacity: .4;fill: url(#g18) } 
		.s18 { opacity: .4;fill: url(#g19) } 
		.s19 { opacity: .4;fill: url(#g20) } 
		.s20 { opacity: .4;fill: url(#g21) } 
		.s21 { opacity: .4;fill: url(#g22) } 
		.s22 { opacity: .4;fill: url(#g23) } 
		.s23 { opacity: .4;fill: url(#g24) } 
		.s24 { opacity: .4;fill: url(#g25) } 
		.s25 { opacity: .4;fill: url(#g26) } 
		.s26 { opacity: .4;fill: url(#g27) } 
		.s27 { opacity: .4;fill: url(#g28) } 
		.s28 { opacity: .4;fill: url(#g29) } 
		.s29 { opacity: .4;fill: url(#g30) } 
		.s30 { opacity: .4;fill: url(#g31) } 
		.s31 { opacity: .4;fill: url(#g32) } 
		.s32 { opacity: .4;fill: url(#g33) } 
		.s33 { opacity: .4;fill: url(#g34) } 
		.s34 { opacity: .4;fill: url(#g35) } 
		.s35 { opacity: .4;fill: url(#g36) } 
		.s36 { opacity: .4;fill: url(#g37) } 
		.s37 { opacity: .4;fill: url(#g38) } 
		.s38 { opacity: .4;fill: url(#g39) } 
		.s39 { opacity: .4;fill: url(#g40) } 
		.s40 { opacity: .4;fill: url(#g41) } 
		.s41 { opacity: .4;fill: url(#g42) } 
		.s42 { opacity: .4;fill: url(#g43) } 
		.s43 { opacity: .4;fill: url(#g44) } 
		.s44 { opacity: .4;fill: url(#g45) } 
		.s45 { opacity: .4;fill: url(#g46) } 
		.s46 { opacity: .4;fill: url(#g47) } 
		.s47 { opacity: .4;fill: url(#g48) } 
		.s48 { opacity: .4;fill: url(#g49) } 
		.s49 { opacity: .4;fill: url(#g50) } 
		.s50 { opacity: .4;fill: url(#g51) } 
		.s51 { opacity: .4;fill: url(#g52) } 
		.s52 { opacity: .4;fill: url(#g53) } 
		.s53 { opacity: .4;fill: url(#g54) } 
		.s54 { opacity: .4;fill: url(#g55) } 
		.s55 { opacity: .4;fill: url(#g56) } 
		.s56 { opacity: .4;fill: url(#g57) } 
		.s57 { opacity: .4;fill: url(#g58) } 
		.s58 { opacity: .4;fill: url(#g59) } 
		.s59 { opacity: .4;fill: url(#g60) } 
		.s60 { opacity: .4;fill: url(#g61) } 
		.s61 { opacity: .4;fill: url(#g62) } 
		.s62 { opacity: .4;fill: url(#g63) } 
		.s63 { opacity: .4;fill: url(#g64) } 
		.s64 { opacity: .4;fill: url(#g65) } 
		.s65 { opacity: .4;fill: url(#g66) } 
		.s66 { opacity: .4;fill: url(#g67) } 
		.s67 { opacity: .4;fill: url(#g68) } 
		.s68 { opacity: .4;fill: url(#g69) } 
		.s69 { opacity: .4;fill: url(#g70) } 
		.s70 { opacity: .4;fill: url(#g71) } 
		.s71 { opacity: .4;fill: url(#g72) } 
		.s72 { opacity: .4;fill: url(#g73) } 
		.s73 { opacity: .4;fill: url(#g74) } 
		.s74 { opacity: .4;fill: url(#g75) } 
		.s75 { opacity: .4;fill: url(#g76) } 
		.s76 { opacity: .4;fill: url(#g77) } 
		.s77 { opacity: .4;fill: url(#g78) } 
		.s78 { opacity: .4;fill: url(#g79) } 
		.s79 { opacity: .4;fill: url(#g80) } 
		.s80 { opacity: .4;fill: url(#g81) } 
		.s81 { opacity: .4;fill: url(#g82) } 
		.s82 { opacity: .4;fill: url(#g83) } 
		.s83 { opacity: .4;fill: url(#g84) } 
	</style>
	<g id="Clip-Path" clip-path="url(#cp1)">
		<g id="Layer" style="opacity: .4">
			<path id="Layer" fill-rule="evenodd" class="s0" d="m273 178c3.1 19.4 0.6 41-8.3 61.1-10.8 24.5-29.2 42.6-50.4 49.5-15.8 5.2-31.3 3.7-45.1-4.2-33.1-19-44.3-70.4-24.9-114.5 10.9-24.5 29.3-42.5 50.5-49.5 15.7-5.1 31.3-3.7 45 4.2 18.1 10.4 29.6 30.3 33.2 53.4zm-136.3 53c3.6 22.9 15 42.6 32.8 52.9 13.6 7.8 29 9.2 44.6 4.1 21-6.9 39.3-24.8 50-49.2 19.3-43.7 8.3-94.7-24.6-113.6-13.6-7.8-29-9.3-44.5-4.2-21.1 6.9-39.3 24.8-50.1 49.2-8.8 20-11.3 41.5-8.2 60.8z"/>
			<path id="Layer" fill-rule="evenodd" class="s1" d="m277.6 183.8c2.1 13.5 1.6 28-2.1 42.4-6.6 25.4-22.1 46.5-42.4 57.9-16.1 9-34.1 11.1-50.8 6.1-39.1-12-60.9-60.1-48.7-107.3 6.6-25.4 22-46.5 42.4-57.9 16.1-9 34.1-11.2 50.7-6.1 27.2 8.3 46.1 34.1 50.9 64.9zm-95.1 105.7c16.5 5 34.3 2.9 50.2-6 20.2-11.3 35.6-32.3 42.1-57.5 12.1-46.9-9.5-94.6-48.3-106.5-16.5-5-34.3-2.9-50.2 6-20.2 11.4-35.5 32.3-42.1 57.5-12.1 46.9 9.6 94.7 48.3 106.5z"/>
			<path id="Layer" fill-rule="evenodd" class="s2" d="m283.6 188.2c1.1 7.5 1.5 15.2 0.8 23.1-2 25-13.5 48.2-31.6 63.5-15.9 13.5-35.5 20-55.3 18.3-44.1-3.7-76.8-46.5-72.9-95.3 2-25.1 13.5-48.2 31.7-63.6 15.8-13.4 35.5-19.9 55.3-18.2 36.9 3.1 65.9 33.7 72 72.2zm-157.4 32.5c6 38.3 34.7 68.6 71.3 71.7 19.6 1.7 39.1-4.8 54.8-18.1 18-15.3 29.4-38.2 31.4-63.1 3.9-48.4-28.5-90.9-72.2-94.5-19.6-1.7-39.1 4.7-54.8 18.1-18 15.2-29.4 38.2-31.4 63-0.6 7.8-0.3 15.5 0.9 22.9z"/>
			<path id="Layer" fill-rule="evenodd" class="s3" d="m290.5 190.4q0.4 2.2 0.6 4.4c5.3 48.8-29.2 92.7-76.9 98.1-22.8 2.5-45.3-4-63.4-18.5-18.6-14.9-30.2-36.2-32.9-60.2-5.3-48.7 29.3-92.7 77-98 22.8-2.6 45.3 4 63.4 18.4 17.4 14 28.7 33.7 32.2 55.8zm-171.2 28.1c3.4 22 14.7 41.5 32 55.3 17.9 14.4 40.2 20.9 62.8 18.4 47.3-5.3 81.6-49 76.3-97.3-2.6-23.7-14.2-44.9-32.6-59.7-17.9-14.3-40.2-20.8-62.8-18.3-47.4 5.3-81.6 48.9-76.3 97.2q0.2 2.3 0.6 4.4z"/>
			<path id="Layer" fill-rule="evenodd" class="s4" d="m298.1 190.1c2.8 17.9-0.2 36.2-8.9 52.7-11.7 22.4-32.1 38.9-57.3 46.5-49.9 15-102.8-10.8-117.9-57.6-7-21.6-4.9-44.9 5.8-65.5 11.8-22.3 32.1-38.8 57.3-46.4 49.9-15 102.8 10.8 118 57.5q2 6.4 3 12.8zm-186.4 28.7q1 6.4 3 12.7c15 46.3 67.5 71.9 117 57 25-7.5 45.2-23.8 56.8-46 10.7-20.4 12.8-43.5 5.8-65-15-46.3-67.4-71.9-117-57-25 7.5-45.2 23.9-56.8 46.1-8.6 16.4-11.6 34.5-8.8 52.2z"/>
			<path id="Layer" fill-rule="evenodd" class="s5" d="m305.7 186.7c1.8 11.5 1 23.5-2.4 35.3-7.6 25.2-26.9 47.1-53.1 60.1-50.4 24.9-111.8 10.4-137-32.4-11.2-18.9-13.8-41.1-7.4-62.6 7.5-25.3 26.9-47.2 53.1-60.1 50.3-24.9 111.8-10.4 137 32.3 5 8.6 8.3 17.8 9.8 27.4zm-201.6 35.5c1.5 9.5 4.8 18.7 9.8 27.1 25 42.4 86 56.8 135.9 32.1 26-12.9 45.2-34.6 52.7-59.7 6.3-21.2 3.7-43.2-7.3-62-25-42.4-86-56.7-136-32-26 12.8-45.2 34.6-52.6 59.6-3.5 11.7-4.3 23.5-2.5 34.9z"/>
			<path id="Layer" fill-rule="evenodd" class="s6" d="m312.9 180.8c1 6.1 1.2 12.4 0.6 18.8-2.6 27.1-19.1 53.2-45.2 71.7-48.9 34.7-117.3 33.1-152.5-3.7-15.1-15.8-22.3-36.5-20.2-58.2 2.6-27 19-53.1 45.2-71.7 48.9-34.7 117.3-33 152.4 3.8 10.7 11.1 17.4 24.7 19.7 39.3zm-45.1 89.8c25.9-18.4 42.3-44.3 44.8-71 2.1-21.5-5-41.9-20-57.5-34.9-36.5-102.8-38.2-151.4-3.7-25.9 18.4-42.2 44.3-44.8 71.1-2 21.4 5.1 41.9 20 57.5 34.9 36.5 102.8 38.1 151.4 3.6z"/>
			<path id="Layer" fill-rule="evenodd" class="s7" d="m319.3 172.9q0.3 2.1 0.5 4.1c2.7 27.2-9.8 56.4-34.3 80.1-45.4 44-118.8 56.3-163.4 27.4-19.1-12.3-30.7-31-32.9-52.5-2.6-27.2 9.9-56.3 34.3-80 45.5-44 118.8-56.4 163.5-27.5 17.8 11.6 29.2 28.6 32.3 48.4zm-228.7 63.1c3.1 19.5 14.3 36.4 32 47.8 44.3 28.7 117.1 16.4 162.3-27.4 24.3-23.5 36.7-52.4 34-79.3-2-21.2-13.6-39.7-32.4-51.8-44.3-28.7-117.2-16.5-162.4 27.3-24.2 23.5-36.6 52.4-34 79.3q0.2 2.1 0.5 4.1z"/>
			<path id="Layer" fill-rule="evenodd" class="s8" d="m324.5 163.7c3.8 23.9-4.5 51.1-23.3 75.8-40 52.5-115.9 79.6-169.1 60.4-23.2-8.4-39.3-24.6-45.6-45.8-7.6-25.9 0.2-56.7 21.4-84.6 40-52.5 115.8-79.6 169.1-60.3 23.1 8.3 39.3 24.6 45.5 45.7q1.3 4.3 2 8.8zm-239.1 81.5q0.7 4.4 2 8.7c6.2 20.9 22.1 36.9 45 45.1 52.9 19.1 128.3-7.8 168-60 21.1-27.6 28.8-58.2 21.2-83.8-6.1-20.9-22.1-36.9-44.9-45.2-52.9-19.1-128.3 7.9-168.1 60.1-18.7 24.5-26.9 51.4-23.2 75.1z"/>
			<path id="Layer" fill-rule="evenodd" class="s9" d="m328.3 153.9c3.2 19.9-1.6 42.7-13.9 65.3-32.5 59.6-108.2 101.7-168.7 93.7-27.3-3.6-48-16.9-58.5-37.5-12-23.6-9.3-54.8 7.4-85.5 32.5-59.7 108.2-101.7 168.8-93.8 27.2 3.6 48 16.9 58.5 37.5 3.1 6.3 5.3 13.1 6.4 20.3zm-246.6 101.1c1.1 7.1 3.2 13.8 6.3 20 10.4 20.3 30.9 33.4 57.8 37 60.2 7.9 135.5-33.9 167.8-93.3 16.6-30.4 19.3-61.3 7.4-84.6-10.3-20.3-30.8-33.5-57.7-37-60.2-8-135.5 33.9-167.9 93.2-12.2 22.4-16.8 45-13.7 64.7z"/>
			<path id="Layer" fill-rule="evenodd" class="s10" d="m330.9 144.5c2.5 15.6 0.4 33.3-6.2 52-23.2 65.1-95.8 121.9-162 126.4-31.2 2.2-56.6-7.5-71.6-27.3-15.9-20.9-18.3-50.4-6.7-83 23.1-65.2 95.8-121.9 161.9-126.5 31.2-2.1 56.7 7.6 71.6 27.3 6.8 9 11.2 19.4 13 31.1zm-251.8 119.9c1.8 11.5 6.1 21.8 12.8 30.6 14.8 19.5 39.9 29.1 70.8 26.9 65.8-4.5 138-60.9 161.1-125.8 11.4-32.2 9.1-61.4-6.6-82.1-14.8-19.5-39.9-29-70.8-26.9-65.8 4.5-138.1 61-161.1 125.8-6.6 18.6-8.6 36.1-6.2 51.5z"/>
			<path id="Layer" fill-rule="evenodd" class="s11" d="m331.9 135.9c1.8 11.1 1.6 23.2-0.7 36.2-12.1 68.7-78.6 139.2-148.3 157.2-34.7 8.9-64.7 3.7-84.5-14.6-19-17.5-26.3-45.1-20.5-77.7 12-68.7 78.6-139.2 148.3-157.2 34.7-8.9 64.7-3.8 84.5 14.6 11.4 10.5 18.6 24.8 21.2 41.5zm-253.8 137.1c2.6 16.5 9.7 30.5 21 40.9 19.5 18.1 49.2 23.2 83.5 14.4 69.4-17.9 135.6-88.1 147.6-156.4 5.6-32.2-1.5-59.5-20.2-76.8-19.6-18-49.2-23.1-83.5-14.3-69.4 17.9-135.6 88-147.6 156.4-2.3 12.8-2.5 24.8-0.8 35.8z"/>
			<path id="Layer" fill-rule="evenodd" class="s12" d="m332.1 129.8q1.3 8.2 1.3 17c0.5 69.9-56.9 152.7-127.8 184.6-36.6 16.4-71.7 16.7-96.4 0.9-21.4-13.8-33.4-38.7-33.6-70.1-0.4-69.8 56.9-152.6 127.9-184.5 36.6-16.4 71.7-16.8 96.3-0.9 17.5 11.1 28.6 29.7 32.3 53zm-254.1 149.3c3.7 23 14.6 41.3 31.8 52.3 24.3 15.6 59.1 15.3 95.3-1 70.6-31.7 127.7-114.1 127.3-183.6-0.2-31-12-55.6-33.2-69.1-24.3-15.7-59-15.3-95.3 1-70.6 31.7-127.7 114.1-127.2 183.5q0.1 8.8 1.3 16.9z"/>
			<path id="Layer" fill-rule="evenodd" class="s13" d="m331.9 126.9c10.7 67.9-33.9 157.3-101.7 201.9-37.5 24.7-76.1 31.7-106.1 19.3-23.6-9.9-40-31.4-46-60.6-14-68.5 31.2-161.4 100.8-207.2 37.4-24.7 76.1-31.7 106-19.3 23.7 9.8 40 31.3 46 60.6q0.6 2.6 1 5.3zm-2.1-5.1c-5.9-28.9-22-50.1-45.3-59.8-29.6-12.2-67.9-5.2-105 19.2-69.2 45.6-114.2 138-100.3 206.1 5.9 28.8 22 50.1 45.4 59.7 29.6 12.3 67.8 5.3 105-19.1 69.2-45.6 114.2-138 100.2-206.1z"/>
			<path id="Layer" fill-rule="evenodd" class="s14" d="m332.1 127.8c9.8 62.5-20.3 143-76.1 193.4-36.4 32.9-77.3 47.5-112.4 40-26.1-5.6-46.1-22.7-57.9-49.4-28.2-64.4 2-164.8 67.4-224 36.3-32.9 77.3-47.5 112.3-40 26.2 5.6 46.2 22.7 57.9 49.5 4.2 9.5 7.1 19.7 8.8 30.5zm-254 153.3c1.7 10.7 4.6 20.8 8.7 30.2 11.6 26.4 31.3 43.3 57.1 48.8 34.6 7.4 75.2-7.1 111.3-39.7 65.1-58.9 95.1-158.7 67.1-222.6-11.6-26.4-31.4-43.3-57.1-48.8-34.7-7.4-75.2 7-111.3 39.7-55.5 50.2-85.6 130.2-75.8 192.4z"/>
			<path id="Layer" fill-rule="evenodd" class="s15" d="m333.6 132.9c8.8 55.8-9.6 124.3-51.5 175.7-33 40.4-74.5 63-113.9 62.1-28.2-0.6-52.3-13.3-69.7-36.7-42.6-57.3-29.8-162.1 28.5-233.5 33-40.4 74.5-63.1 113.9-62.2 28.2 0.7 52.3 13.4 69.6 36.7 12 16.2 19.6 36 23.1 57.9zm-256.9 143c3.4 21.7 10.9 41.4 22.8 57.4 17.1 23.1 40.9 35.6 68.7 36.2 39 0.9 80.1-21.6 112.9-61.7 41.7-51.1 60-119.2 51.3-174.7-3.4-21.6-11-41.4-22.9-57.4-17.1-23-40.8-35.5-68.7-36.1-38.9-0.9-80.1 21.6-112.9 61.7-41.7 51-60 119.2-51.2 174.6z"/>
			<path id="Layer" fill-rule="evenodd" class="s16" d="m337.4 142.2c7.4 47.1-2.3 101.7-30 148.6-27.3 46.3-67.2 77-109.3 84.2-30.3 5.2-58.5-2.3-81.6-21.7-56.6-47.6-63.3-153-14.9-235 27.4-46.4 67.2-77 109.4-84.3 30.2-5.1 58.4 2.4 81.5 21.8 24.3 20.3 39.3 51.3 44.9 86.4zm-264.5 124.4c5.5 34.9 20.4 65.6 44.4 85.7 22.8 19.2 50.7 26.6 80.6 21.5 41.7-7.2 81.3-37.7 108.4-83.6 48.2-81.5 41.6-186.3-14.6-233.5-22.8-19.1-50.6-26.5-80.5-21.4-41.8 7.1-81.3 37.6-108.5 83.6-27.6 46.7-37.2 101-29.8 147.7z"/>
			<path id="Layer" fill-rule="evenodd" class="s17" d="m344.2 154.1c5.8 36.2 1.9 76.2-13.1 114.1-19.9 50-55.6 87.9-98.1 104.1-31.6 12-64.8 10.7-93.5-3.8-69.7-35.1-97.3-137.2-61.5-227.6 19.8-50 55.6-88 98.1-104.1 31.6-12.1 64.8-10.7 93.5 3.8 40.5 20.4 66.7 63.3 74.6 113.5zm-278.1 100.7c7.9 49.7 33.9 92.3 74 112.5 28.8 14.5 60.7 15.8 92.4 3.8 42.2-16.1 77.7-53.7 97.3-103.4 15-37.7 18.8-77.5 13.2-113.5-7.9-49.7-33.9-92.3-74-112.5-28.8-14.5-60.8-15.8-92.4-3.7-42.2 16-77.7 53.7-97.4 103.4-14.9 37.7-18.8 77.4-13.1 113.4z"/>
			<path id="Layer" fill-rule="evenodd" class="s18" d="m354.2 165.3c3.8 24.3 3.3 50-2.3 75.9-11 51.1-40.4 94.7-80.5 119.7-32.4 20.2-69.5 26.5-104.5 17.8-81.2-20.2-130.5-114.8-109.7-210.8 11-51.1 40.3-94.8 80.4-119.8 32.4-20.1 69.5-26.5 104.5-17.8 59.4 14.8 101.7 69.3 112.1 135.1zm-298 78.1c10.3 65.2 52.2 119.3 111.1 133.9 34.6 8.6 71.3 2.4 103.4-17.6 39.8-24.8 68.9-68.2 79.9-118.9 20.5-95.3-28.2-189.2-108.8-209.2-34.6-8.6-71.4-2.4-103.4 17.6-39.8 24.8-68.9 68.1-79.9 118.9-5.5 25.7-6.1 51.3-2.3 75.3z"/>
			<path id="Layer" fill-rule="evenodd" class="s19" d="m366.7 173.3c1.9 12 2.7 24.4 2.2 37.1-1.7 47.7-20.4 91.9-52.6 124.5-32.3 32.7-74.2 49.8-118.1 48.3-90.7-3.3-161.6-86-158.1-184.5 3.5-98.5 80.1-176 170.8-172.8 79 2.8 143 66 155.8 147.4zm-322.9 62.2c12.7 80.8 76.1 143.4 154.4 146.2 43.6 1.6 85.1-15.4 117.1-47.8 32-32.3 50.5-76.2 52.2-123.6 0.4-12.5-0.3-24.9-2.2-36.8-12.7-80.7-76.2-143.4-154.5-146.2-89.8-3.2-165.7 73.7-169.2 171.4-0.5 12.6 0.3 24.9 2.2 36.8z"/>
			<path id="Layer" fill-rule="evenodd" class="s20" d="m381.1 176.7c15.4 97.4-51.4 189.1-148.7 204.4-97.4 15.4-189.1-51.4-204.5-148.7-15.3-97.4 51.4-189.1 148.8-204.5 97.3-15.3 189.1 51.4 204.4 148.8zm-351.7 55.4c15.2 96.6 106.2 162.8 202.7 147.5 96.6-15.2 162.8-106.1 147.5-202.7-15.2-96.6-106.1-162.7-202.7-147.5-96.6 15.2-162.7 106.2-147.5 202.7z"/>
		</g>
	</g>
	<g id="Clip-Path copy" clip-path="url(#cp2)">
		<g id="Layer" style="opacity: .4">
			<path id="Layer" fill-rule="evenodd" class="s21" d="m273 178c3.1 19.4 0.6 41-8.3 61.1-10.8 24.5-29.2 42.6-50.4 49.5-15.8 5.2-31.3 3.7-45.1-4.2-33.1-19-44.3-70.4-24.9-114.5 10.9-24.5 29.3-42.5 50.5-49.5 15.7-5.1 31.3-3.7 45 4.2 18.1 10.4 29.6 30.3 33.2 53.4zm-136.3 53c3.6 22.9 15 42.6 32.8 52.9 13.6 7.8 29 9.2 44.6 4.1 21-6.9 39.3-24.8 50-49.2 19.3-43.7 8.3-94.7-24.6-113.6-13.6-7.8-29-9.3-44.5-4.2-21.1 6.9-39.3 24.8-50.1 49.2-8.8 20-11.3 41.5-8.2 60.8z"/>
			<path id="Layer" fill-rule="evenodd" class="s22" d="m277.6 183.8c2.1 13.5 1.6 28-2.1 42.4-6.6 25.4-22.1 46.5-42.4 57.9-16.1 9-34.1 11.1-50.8 6.1-39.1-12-60.9-60.1-48.7-107.3 6.6-25.4 22-46.5 42.4-57.9 16.1-9 34.1-11.2 50.7-6.1 27.2 8.3 46.1 34.1 50.9 64.9zm-95.1 105.7c16.5 5 34.3 2.9 50.2-6 20.2-11.3 35.6-32.3 42.1-57.5 12.1-46.9-9.5-94.6-48.3-106.5-16.5-5-34.3-2.9-50.2 6-20.2 11.4-35.5 32.3-42.1 57.5-12.1 46.9 9.6 94.7 48.3 106.5z"/>
			<path id="Layer" fill-rule="evenodd" class="s23" d="m283.6 188.2c1.1 7.5 1.5 15.2 0.8 23.1-2 25-13.5 48.2-31.6 63.5-15.9 13.5-35.5 20-55.3 18.3-44.1-3.7-76.8-46.5-72.9-95.3 2-25.1 13.5-48.2 31.7-63.6 15.8-13.4 35.5-19.9 55.3-18.2 36.9 3.1 65.9 33.7 72 72.2zm-157.4 32.5c6 38.3 34.7 68.6 71.3 71.7 19.6 1.7 39.1-4.8 54.8-18.1 18-15.3 29.4-38.2 31.4-63.1 3.9-48.4-28.5-90.9-72.2-94.5-19.6-1.7-39.1 4.7-54.8 18.1-18 15.2-29.4 38.2-31.4 63-0.6 7.8-0.3 15.5 0.9 22.9z"/>
			<path id="Layer" fill-rule="evenodd" class="s24" d="m290.5 190.4q0.4 2.2 0.6 4.4c5.3 48.8-29.2 92.7-76.9 98.1-22.8 2.5-45.3-4-63.4-18.5-18.6-14.9-30.2-36.2-32.9-60.2-5.3-48.7 29.3-92.7 77-98 22.8-2.6 45.3 4 63.4 18.4 17.4 14 28.7 33.7 32.2 55.8zm-171.2 28.1c3.4 22 14.7 41.5 32 55.3 17.9 14.4 40.2 20.9 62.8 18.4 47.3-5.3 81.6-49 76.3-97.3-2.6-23.7-14.2-44.9-32.6-59.7-17.9-14.3-40.2-20.8-62.8-18.3-47.4 5.3-81.6 48.9-76.3 97.2q0.2 2.3 0.6 4.4z"/>
			<path id="Layer" fill-rule="evenodd" class="s25" d="m298.1 190.1c2.8 17.9-0.2 36.2-8.9 52.7-11.7 22.4-32.1 38.9-57.3 46.5-49.9 15-102.8-10.8-117.9-57.6-7-21.6-4.9-44.9 5.8-65.5 11.8-22.3 32.1-38.8 57.3-46.4 49.9-15 102.8 10.8 118 57.5q2 6.4 3 12.8zm-186.4 28.7q1 6.4 3 12.7c15 46.3 67.5 71.9 117 57 25-7.5 45.2-23.8 56.8-46 10.7-20.4 12.8-43.5 5.8-65-15-46.3-67.4-71.9-117-57-25 7.5-45.2 23.9-56.8 46.1-8.6 16.4-11.6 34.5-8.8 52.2z"/>
			<path id="Layer" fill-rule="evenodd" class="s26" d="m305.7 186.7c1.8 11.5 1 23.5-2.4 35.3-7.6 25.2-26.9 47.1-53.1 60.1-50.4 24.9-111.8 10.4-137-32.4-11.2-18.9-13.8-41.1-7.4-62.6 7.5-25.3 26.9-47.2 53.1-60.1 50.3-24.9 111.8-10.4 137 32.3 5 8.6 8.3 17.8 9.8 27.4zm-201.6 35.5c1.5 9.5 4.8 18.7 9.8 27.1 25 42.4 86 56.8 135.9 32.1 26-12.9 45.2-34.6 52.7-59.7 6.3-21.2 3.7-43.2-7.3-62-25-42.4-86-56.7-136-32-26 12.8-45.2 34.6-52.6 59.6-3.5 11.7-4.3 23.5-2.5 34.9z"/>
			<path id="Layer" fill-rule="evenodd" class="s27" d="m312.9 180.8c1 6.1 1.2 12.4 0.6 18.8-2.6 27.1-19.1 53.2-45.2 71.7-48.9 34.7-117.3 33.1-152.5-3.7-15.1-15.8-22.3-36.5-20.2-58.2 2.6-27 19-53.1 45.2-71.7 48.9-34.7 117.3-33 152.4 3.8 10.7 11.1 17.4 24.7 19.7 39.3zm-45.1 89.8c25.9-18.4 42.3-44.3 44.8-71 2.1-21.5-5-41.9-20-57.5-34.9-36.5-102.8-38.2-151.4-3.7-25.9 18.4-42.2 44.3-44.8 71.1-2 21.4 5.1 41.9 20 57.5 34.9 36.5 102.8 38.1 151.4 3.6z"/>
			<path id="Layer" fill-rule="evenodd" class="s28" d="m319.3 172.9q0.3 2.1 0.5 4.1c2.7 27.2-9.8 56.4-34.3 80.1-45.4 44-118.8 56.3-163.4 27.4-19.1-12.3-30.7-31-32.9-52.5-2.6-27.2 9.9-56.3 34.3-80 45.5-44 118.8-56.4 163.5-27.5 17.8 11.6 29.2 28.6 32.3 48.4zm-228.7 63.1c3.1 19.5 14.3 36.4 32 47.8 44.3 28.7 117.1 16.4 162.3-27.4 24.3-23.5 36.7-52.4 34-79.3-2-21.2-13.6-39.7-32.4-51.8-44.3-28.7-117.2-16.5-162.4 27.3-24.2 23.5-36.6 52.4-34 79.3q0.2 2.1 0.5 4.1z"/>
			<path id="Layer" fill-rule="evenodd" class="s29" d="m324.5 163.7c3.8 23.9-4.5 51.1-23.3 75.8-40 52.5-115.9 79.6-169.1 60.4-23.2-8.4-39.3-24.6-45.6-45.8-7.6-25.9 0.2-56.7 21.4-84.6 40-52.5 115.8-79.6 169.1-60.3 23.1 8.3 39.3 24.6 45.5 45.7q1.3 4.3 2 8.8zm-239.1 81.5q0.7 4.4 2 8.7c6.2 20.9 22.1 36.9 45 45.1 52.9 19.1 128.3-7.8 168-60 21.1-27.6 28.8-58.2 21.2-83.8-6.1-20.9-22.1-36.9-44.9-45.2-52.9-19.1-128.3 7.9-168.1 60.1-18.7 24.5-26.9 51.4-23.2 75.1z"/>
			<path id="Layer" fill-rule="evenodd" class="s30" d="m328.3 153.9c3.2 19.9-1.6 42.7-13.9 65.3-32.5 59.6-108.2 101.7-168.7 93.7-27.3-3.6-48-16.9-58.5-37.5-12-23.6-9.3-54.8 7.4-85.5 32.5-59.7 108.2-101.7 168.8-93.8 27.2 3.6 48 16.9 58.5 37.5 3.1 6.3 5.3 13.1 6.4 20.3zm-246.6 101.1c1.1 7.1 3.2 13.8 6.3 20 10.4 20.3 30.9 33.4 57.8 37 60.2 7.9 135.5-33.9 167.8-93.3 16.6-30.4 19.3-61.3 7.4-84.6-10.3-20.3-30.8-33.5-57.7-37-60.2-8-135.5 33.9-167.9 93.2-12.2 22.4-16.8 45-13.7 64.7z"/>
			<path id="Layer" fill-rule="evenodd" class="s31" d="m330.9 144.5c2.5 15.6 0.4 33.3-6.2 52-23.2 65.1-95.8 121.9-162 126.4-31.2 2.2-56.6-7.5-71.6-27.3-15.9-20.9-18.3-50.4-6.7-83 23.1-65.2 95.8-121.9 161.9-126.5 31.2-2.1 56.7 7.6 71.6 27.3 6.8 9 11.2 19.4 13 31.1zm-251.8 119.9c1.8 11.5 6.1 21.8 12.8 30.6 14.8 19.5 39.9 29.1 70.8 26.9 65.8-4.5 138-60.9 161.1-125.8 11.4-32.2 9.1-61.4-6.6-82.1-14.8-19.5-39.9-29-70.8-26.9-65.8 4.5-138.1 61-161.1 125.8-6.6 18.6-8.6 36.1-6.2 51.5z"/>
			<path id="Layer" fill-rule="evenodd" class="s32" d="m331.9 135.9c1.8 11.1 1.6 23.2-0.7 36.2-12.1 68.7-78.6 139.2-148.3 157.2-34.7 8.9-64.7 3.7-84.5-14.6-19-17.5-26.3-45.1-20.5-77.7 12-68.7 78.6-139.2 148.3-157.2 34.7-8.9 64.7-3.8 84.5 14.6 11.4 10.5 18.6 24.8 21.2 41.5zm-253.8 137.1c2.6 16.5 9.7 30.5 21 40.9 19.5 18.1 49.2 23.2 83.5 14.4 69.4-17.9 135.6-88.1 147.6-156.4 5.6-32.2-1.5-59.5-20.2-76.8-19.6-18-49.2-23.1-83.5-14.3-69.4 17.9-135.6 88-147.6 156.4-2.3 12.8-2.5 24.8-0.8 35.8z"/>
			<path id="Layer" fill-rule="evenodd" class="s33" d="m332.1 129.8q1.3 8.2 1.3 17c0.5 69.9-56.9 152.7-127.8 184.6-36.6 16.4-71.7 16.7-96.4 0.9-21.4-13.8-33.4-38.7-33.6-70.1-0.4-69.8 56.9-152.6 127.9-184.5 36.6-16.4 71.7-16.8 96.3-0.9 17.5 11.1 28.6 29.7 32.3 53zm-254.1 149.3c3.7 23 14.6 41.3 31.8 52.3 24.3 15.6 59.1 15.3 95.3-1 70.6-31.7 127.7-114.1 127.3-183.6-0.2-31-12-55.6-33.2-69.1-24.3-15.7-59-15.3-95.3 1-70.6 31.7-127.7 114.1-127.2 183.5q0.1 8.8 1.3 16.9z"/>
			<path id="Layer" fill-rule="evenodd" class="s34" d="m331.9 126.9c10.7 67.9-33.9 157.3-101.7 201.9-37.5 24.7-76.1 31.7-106.1 19.3-23.6-9.9-40-31.4-46-60.6-14-68.5 31.2-161.4 100.8-207.2 37.4-24.7 76.1-31.7 106-19.3 23.7 9.8 40 31.3 46 60.6q0.6 2.6 1 5.3zm-2.1-5.1c-5.9-28.9-22-50.1-45.3-59.8-29.6-12.2-67.9-5.2-105 19.2-69.2 45.6-114.2 138-100.3 206.1 5.9 28.8 22 50.1 45.4 59.7 29.6 12.3 67.8 5.3 105-19.1 69.2-45.6 114.2-138 100.2-206.1z"/>
			<path id="Layer" fill-rule="evenodd" class="s35" d="m332.1 127.8c9.8 62.5-20.3 143-76.1 193.4-36.4 32.9-77.3 47.5-112.4 40-26.1-5.6-46.1-22.7-57.9-49.4-28.2-64.4 2-164.8 67.4-224 36.3-32.9 77.3-47.5 112.3-40 26.2 5.6 46.2 22.7 57.9 49.5 4.2 9.5 7.1 19.7 8.8 30.5zm-254 153.3c1.7 10.7 4.6 20.8 8.7 30.2 11.6 26.4 31.3 43.3 57.1 48.8 34.6 7.4 75.2-7.1 111.3-39.7 65.1-58.9 95.1-158.7 67.1-222.6-11.6-26.4-31.4-43.3-57.1-48.8-34.7-7.4-75.2 7-111.3 39.7-55.5 50.2-85.6 130.2-75.8 192.4z"/>
			<path id="Layer" fill-rule="evenodd" class="s36" d="m333.6 132.9c8.8 55.8-9.6 124.3-51.5 175.7-33 40.4-74.5 63-113.9 62.1-28.2-0.6-52.3-13.3-69.7-36.7-42.6-57.3-29.8-162.1 28.5-233.5 33-40.4 74.5-63.1 113.9-62.2 28.2 0.7 52.3 13.4 69.6 36.7 12 16.2 19.6 36 23.1 57.9zm-256.9 143c3.4 21.7 10.9 41.4 22.8 57.4 17.1 23.1 40.9 35.6 68.7 36.2 39 0.9 80.1-21.6 112.9-61.7 41.7-51.1 60-119.2 51.3-174.7-3.4-21.6-11-41.4-22.9-57.4-17.1-23-40.8-35.5-68.7-36.1-38.9-0.9-80.1 21.6-112.9 61.7-41.7 51-60 119.2-51.2 174.6z"/>
			<path id="Layer" fill-rule="evenodd" class="s37" d="m337.4 142.2c7.4 47.1-2.3 101.7-30 148.6-27.3 46.3-67.2 77-109.3 84.2-30.3 5.2-58.5-2.3-81.6-21.7-56.6-47.6-63.3-153-14.9-235 27.4-46.4 67.2-77 109.4-84.3 30.2-5.1 58.4 2.4 81.5 21.8 24.3 20.3 39.3 51.3 44.9 86.4zm-264.5 124.4c5.5 34.9 20.4 65.6 44.4 85.7 22.8 19.2 50.7 26.6 80.6 21.5 41.7-7.2 81.3-37.7 108.4-83.6 48.2-81.5 41.6-186.3-14.6-233.5-22.8-19.1-50.6-26.5-80.5-21.4-41.8 7.1-81.3 37.6-108.5 83.6-27.6 46.7-37.2 101-29.8 147.7z"/>
			<path id="Layer" fill-rule="evenodd" class="s38" d="m344.2 154.1c5.8 36.2 1.9 76.2-13.1 114.1-19.9 50-55.6 87.9-98.1 104.1-31.6 12-64.8 10.7-93.5-3.8-69.7-35.1-97.3-137.2-61.5-227.6 19.8-50 55.6-88 98.1-104.1 31.6-12.1 64.8-10.7 93.5 3.8 40.5 20.4 66.7 63.3 74.6 113.5zm-278.1 100.7c7.9 49.7 33.9 92.3 74 112.5 28.8 14.5 60.7 15.8 92.4 3.8 42.2-16.1 77.7-53.7 97.3-103.4 15-37.7 18.8-77.5 13.2-113.5-7.9-49.7-33.9-92.3-74-112.5-28.8-14.5-60.8-15.8-92.4-3.7-42.2 16-77.7 53.7-97.4 103.4-14.9 37.7-18.8 77.4-13.1 113.4z"/>
			<path id="Layer" fill-rule="evenodd" class="s39" d="m354.2 165.3c3.8 24.3 3.3 50-2.3 75.9-11 51.1-40.4 94.7-80.5 119.7-32.4 20.2-69.5 26.5-104.5 17.8-81.2-20.2-130.5-114.8-109.7-210.8 11-51.1 40.3-94.8 80.4-119.8 32.4-20.1 69.5-26.5 104.5-17.8 59.4 14.8 101.7 69.3 112.1 135.1zm-298 78.1c10.3 65.2 52.2 119.3 111.1 133.9 34.6 8.6 71.3 2.4 103.4-17.6 39.8-24.8 68.9-68.2 79.9-118.9 20.5-95.3-28.2-189.2-108.8-209.2-34.6-8.6-71.4-2.4-103.4 17.6-39.8 24.8-68.9 68.1-79.9 118.9-5.5 25.7-6.1 51.3-2.3 75.3z"/>
			<path id="Layer" fill-rule="evenodd" class="s40" d="m366.7 173.3c1.9 12 2.7 24.4 2.2 37.1-1.7 47.7-20.4 91.9-52.6 124.5-32.3 32.7-74.2 49.8-118.1 48.3-90.7-3.3-161.6-86-158.1-184.5 3.5-98.5 80.1-176 170.8-172.8 79 2.8 143 66 155.8 147.4zm-322.9 62.2c12.7 80.8 76.1 143.4 154.4 146.2 43.6 1.6 85.1-15.4 117.1-47.8 32-32.3 50.5-76.2 52.2-123.6 0.4-12.5-0.3-24.9-2.2-36.8-12.7-80.7-76.2-143.4-154.5-146.2-89.8-3.2-165.7 73.7-169.2 171.4-0.5 12.6 0.3 24.9 2.2 36.8z"/>
			<path id="Layer" fill-rule="evenodd" class="s41" d="m381.1 176.7c15.4 97.4-51.4 189.1-148.7 204.4-97.4 15.4-189.1-51.4-204.5-148.7-15.3-97.4 51.4-189.1 148.8-204.5 97.3-15.3 189.1 51.4 204.4 148.8zm-351.7 55.4c15.2 96.6 106.2 162.8 202.7 147.5 96.6-15.2 162.8-106.1 147.5-202.7-15.2-96.6-106.1-162.7-202.7-147.5-96.6 15.2-162.7 106.2-147.5 202.7z"/>
		</g>
	</g>
	<g id="Clip-Path copy 2" clip-path="url(#cp3)">
		<g id="Layer" style="opacity: .4">
			<path id="Layer" fill-rule="evenodd" class="s42" d="m273 178c3.1 19.4 0.6 41-8.3 61.1-10.8 24.5-29.2 42.6-50.4 49.5-15.8 5.2-31.3 3.7-45.1-4.2-33.1-19-44.3-70.4-24.9-114.5 10.9-24.5 29.3-42.5 50.5-49.5 15.7-5.1 31.3-3.7 45 4.2 18.1 10.4 29.6 30.3 33.2 53.4zm-136.3 53c3.6 22.9 15 42.6 32.8 52.9 13.6 7.8 29 9.2 44.6 4.1 21-6.9 39.3-24.8 50-49.2 19.3-43.7 8.3-94.7-24.6-113.6-13.6-7.8-29-9.3-44.5-4.2-21.1 6.9-39.3 24.8-50.1 49.2-8.8 20-11.3 41.5-8.2 60.8z"/>
			<path id="Layer" fill-rule="evenodd" class="s43" d="m277.6 183.8c2.1 13.5 1.6 28-2.1 42.4-6.6 25.4-22.1 46.5-42.4 57.9-16.1 9-34.1 11.1-50.8 6.1-39.1-12-60.9-60.1-48.7-107.3 6.6-25.4 22-46.5 42.4-57.9 16.1-9 34.1-11.2 50.7-6.1 27.2 8.3 46.1 34.1 50.9 64.9zm-95.1 105.7c16.5 5 34.3 2.9 50.2-6 20.2-11.3 35.6-32.3 42.1-57.5 12.1-46.9-9.5-94.6-48.3-106.5-16.5-5-34.3-2.9-50.2 6-20.2 11.4-35.5 32.3-42.1 57.5-12.1 46.9 9.6 94.7 48.3 106.5z"/>
			<path id="Layer" fill-rule="evenodd" class="s44" d="m283.6 188.2c1.1 7.5 1.5 15.2 0.8 23.1-2 25-13.5 48.2-31.6 63.5-15.9 13.5-35.5 20-55.3 18.3-44.1-3.7-76.8-46.5-72.9-95.3 2-25.1 13.5-48.2 31.7-63.6 15.8-13.4 35.5-19.9 55.3-18.2 36.9 3.1 65.9 33.7 72 72.2zm-157.4 32.5c6 38.3 34.7 68.6 71.3 71.7 19.6 1.7 39.1-4.8 54.8-18.1 18-15.3 29.4-38.2 31.4-63.1 3.9-48.4-28.5-90.9-72.2-94.5-19.6-1.7-39.1 4.7-54.8 18.1-18 15.2-29.4 38.2-31.4 63-0.6 7.8-0.3 15.5 0.9 22.9z"/>
			<path id="Layer" fill-rule="evenodd" class="s45" d="m290.5 190.4q0.4 2.2 0.6 4.4c5.3 48.8-29.2 92.7-76.9 98.1-22.8 2.5-45.3-4-63.4-18.5-18.6-14.9-30.2-36.2-32.9-60.2-5.3-48.7 29.3-92.7 77-98 22.8-2.6 45.3 4 63.4 18.4 17.4 14 28.7 33.7 32.2 55.8zm-171.2 28.1c3.4 22 14.7 41.5 32 55.3 17.9 14.4 40.2 20.9 62.8 18.4 47.3-5.3 81.6-49 76.3-97.3-2.6-23.7-14.2-44.9-32.6-59.7-17.9-14.3-40.2-20.8-62.8-18.3-47.4 5.3-81.6 48.9-76.3 97.2q0.2 2.3 0.6 4.4z"/>
			<path id="Layer" fill-rule="evenodd" class="s46" d="m298.1 190.1c2.8 17.9-0.2 36.2-8.9 52.7-11.7 22.4-32.1 38.9-57.3 46.5-49.9 15-102.8-10.8-117.9-57.6-7-21.6-4.9-44.9 5.8-65.5 11.8-22.3 32.1-38.8 57.3-46.4 49.9-15 102.8 10.8 118 57.5q2 6.4 3 12.8zm-186.4 28.7q1 6.4 3 12.7c15 46.3 67.5 71.9 117 57 25-7.5 45.2-23.8 56.8-46 10.7-20.4 12.8-43.5 5.8-65-15-46.3-67.4-71.9-117-57-25 7.5-45.2 23.9-56.8 46.1-8.6 16.4-11.6 34.5-8.8 52.2z"/>
			<path id="Layer" fill-rule="evenodd" class="s47" d="m305.7 186.7c1.8 11.5 1 23.5-2.4 35.3-7.6 25.2-26.9 47.1-53.1 60.1-50.4 24.9-111.8 10.4-137-32.4-11.2-18.9-13.8-41.1-7.4-62.6 7.5-25.3 26.9-47.2 53.1-60.1 50.3-24.9 111.8-10.4 137 32.3 5 8.6 8.3 17.8 9.8 27.4zm-201.6 35.5c1.5 9.5 4.8 18.7 9.8 27.1 25 42.4 86 56.8 135.9 32.1 26-12.9 45.2-34.6 52.7-59.7 6.3-21.2 3.7-43.2-7.3-62-25-42.4-86-56.7-136-32-26 12.8-45.2 34.6-52.6 59.6-3.5 11.7-4.3 23.5-2.5 34.9z"/>
			<path id="Layer" fill-rule="evenodd" class="s48" d="m312.9 180.8c1 6.1 1.2 12.4 0.6 18.8-2.6 27.1-19.1 53.2-45.2 71.7-48.9 34.7-117.3 33.1-152.5-3.7-15.1-15.8-22.3-36.5-20.2-58.2 2.6-27 19-53.1 45.2-71.7 48.9-34.7 117.3-33 152.4 3.8 10.7 11.1 17.4 24.7 19.7 39.3zm-45.1 89.8c25.9-18.4 42.3-44.3 44.8-71 2.1-21.5-5-41.9-20-57.5-34.9-36.5-102.8-38.2-151.4-3.7-25.9 18.4-42.2 44.3-44.8 71.1-2 21.4 5.1 41.9 20 57.5 34.9 36.5 102.8 38.1 151.4 3.6z"/>
			<path id="Layer" fill-rule="evenodd" class="s49" d="m319.3 172.9q0.3 2.1 0.5 4.1c2.7 27.2-9.8 56.4-34.3 80.1-45.4 44-118.8 56.3-163.4 27.4-19.1-12.3-30.7-31-32.9-52.5-2.6-27.2 9.9-56.3 34.3-80 45.5-44 118.8-56.4 163.5-27.5 17.8 11.6 29.2 28.6 32.3 48.4zm-228.7 63.1c3.1 19.5 14.3 36.4 32 47.8 44.3 28.7 117.1 16.4 162.3-27.4 24.3-23.5 36.7-52.4 34-79.3-2-21.2-13.6-39.7-32.4-51.8-44.3-28.7-117.2-16.5-162.4 27.3-24.2 23.5-36.6 52.4-34 79.3q0.2 2.1 0.5 4.1z"/>
			<path id="Layer" fill-rule="evenodd" class="s50" d="m324.5 163.7c3.8 23.9-4.5 51.1-23.3 75.8-40 52.5-115.9 79.6-169.1 60.4-23.2-8.4-39.3-24.6-45.6-45.8-7.6-25.9 0.2-56.7 21.4-84.6 40-52.5 115.8-79.6 169.1-60.3 23.1 8.3 39.3 24.6 45.5 45.7q1.3 4.3 2 8.8zm-239.1 81.5q0.7 4.4 2 8.7c6.2 20.9 22.1 36.9 45 45.1 52.9 19.1 128.3-7.8 168-60 21.1-27.6 28.8-58.2 21.2-83.8-6.1-20.9-22.1-36.9-44.9-45.2-52.9-19.1-128.3 7.9-168.1 60.1-18.7 24.5-26.9 51.4-23.2 75.1z"/>
			<path id="Layer" fill-rule="evenodd" class="s51" d="m328.3 153.9c3.2 19.9-1.6 42.7-13.9 65.3-32.5 59.6-108.2 101.7-168.7 93.7-27.3-3.6-48-16.9-58.5-37.5-12-23.6-9.3-54.8 7.4-85.5 32.5-59.7 108.2-101.7 168.8-93.8 27.2 3.6 48 16.9 58.5 37.5 3.1 6.3 5.3 13.1 6.4 20.3zm-246.6 101.1c1.1 7.1 3.2 13.8 6.3 20 10.4 20.3 30.9 33.4 57.8 37 60.2 7.9 135.5-33.9 167.8-93.3 16.6-30.4 19.3-61.3 7.4-84.6-10.3-20.3-30.8-33.5-57.7-37-60.2-8-135.5 33.9-167.9 93.2-12.2 22.4-16.8 45-13.7 64.7z"/>
			<path id="Layer" fill-rule="evenodd" class="s52" d="m330.9 144.5c2.5 15.6 0.4 33.3-6.2 52-23.2 65.1-95.8 121.9-162 126.4-31.2 2.2-56.6-7.5-71.6-27.3-15.9-20.9-18.3-50.4-6.7-83 23.1-65.2 95.8-121.9 161.9-126.5 31.2-2.1 56.7 7.6 71.6 27.3 6.8 9 11.2 19.4 13 31.1zm-251.8 119.9c1.8 11.5 6.1 21.8 12.8 30.6 14.8 19.5 39.9 29.1 70.8 26.9 65.8-4.5 138-60.9 161.1-125.8 11.4-32.2 9.1-61.4-6.6-82.1-14.8-19.5-39.9-29-70.8-26.9-65.8 4.5-138.1 61-161.1 125.8-6.6 18.6-8.6 36.1-6.2 51.5z"/>
			<path id="Layer" fill-rule="evenodd" class="s53" d="m331.9 135.9c1.8 11.1 1.6 23.2-0.7 36.2-12.1 68.7-78.6 139.2-148.3 157.2-34.7 8.9-64.7 3.7-84.5-14.6-19-17.5-26.3-45.1-20.5-77.7 12-68.7 78.6-139.2 148.3-157.2 34.7-8.9 64.7-3.8 84.5 14.6 11.4 10.5 18.6 24.8 21.2 41.5zm-253.8 137.1c2.6 16.5 9.7 30.5 21 40.9 19.5 18.1 49.2 23.2 83.5 14.4 69.4-17.9 135.6-88.1 147.6-156.4 5.6-32.2-1.5-59.5-20.2-76.8-19.6-18-49.2-23.1-83.5-14.3-69.4 17.9-135.6 88-147.6 156.4-2.3 12.8-2.5 24.8-0.8 35.8z"/>
			<path id="Layer" fill-rule="evenodd" class="s54" d="m332.1 129.8q1.3 8.2 1.3 17c0.5 69.9-56.9 152.7-127.8 184.6-36.6 16.4-71.7 16.7-96.4 0.9-21.4-13.8-33.4-38.7-33.6-70.1-0.4-69.8 56.9-152.6 127.9-184.5 36.6-16.4 71.7-16.8 96.3-0.9 17.5 11.1 28.6 29.7 32.3 53zm-254.1 149.3c3.7 23 14.6 41.3 31.8 52.3 24.3 15.6 59.1 15.3 95.3-1 70.6-31.7 127.7-114.1 127.3-183.6-0.2-31-12-55.6-33.2-69.1-24.3-15.7-59-15.3-95.3 1-70.6 31.7-127.7 114.1-127.2 183.5q0.1 8.8 1.3 16.9z"/>
			<path id="Layer" fill-rule="evenodd" class="s55" d="m331.9 126.9c10.7 67.9-33.9 157.3-101.7 201.9-37.5 24.7-76.1 31.7-106.1 19.3-23.6-9.9-40-31.4-46-60.6-14-68.5 31.2-161.4 100.8-207.2 37.4-24.7 76.1-31.7 106-19.3 23.7 9.8 40 31.3 46 60.6q0.6 2.6 1 5.3zm-2.1-5.1c-5.9-28.9-22-50.1-45.3-59.8-29.6-12.2-67.9-5.2-105 19.2-69.2 45.6-114.2 138-100.3 206.1 5.9 28.8 22 50.1 45.4 59.7 29.6 12.3 67.8 5.3 105-19.1 69.2-45.6 114.2-138 100.2-206.1z"/>
			<path id="Layer" fill-rule="evenodd" class="s56" d="m332.1 127.8c9.8 62.5-20.3 143-76.1 193.4-36.4 32.9-77.3 47.5-112.4 40-26.1-5.6-46.1-22.7-57.9-49.4-28.2-64.4 2-164.8 67.4-224 36.3-32.9 77.3-47.5 112.3-40 26.2 5.6 46.2 22.7 57.9 49.5 4.2 9.5 7.1 19.7 8.8 30.5zm-254 153.3c1.7 10.7 4.6 20.8 8.7 30.2 11.6 26.4 31.3 43.3 57.1 48.8 34.6 7.4 75.2-7.1 111.3-39.7 65.1-58.9 95.1-158.7 67.1-222.6-11.6-26.4-31.4-43.3-57.1-48.8-34.7-7.4-75.2 7-111.3 39.7-55.5 50.2-85.6 130.2-75.8 192.4z"/>
			<path id="Layer" fill-rule="evenodd" class="s57" d="m333.6 132.9c8.8 55.8-9.6 124.3-51.5 175.7-33 40.4-74.5 63-113.9 62.1-28.2-0.6-52.3-13.3-69.7-36.7-42.6-57.3-29.8-162.1 28.5-233.5 33-40.4 74.5-63.1 113.9-62.2 28.2 0.7 52.3 13.4 69.6 36.7 12 16.2 19.6 36 23.1 57.9zm-256.9 143c3.4 21.7 10.9 41.4 22.8 57.4 17.1 23.1 40.9 35.6 68.7 36.2 39 0.9 80.1-21.6 112.9-61.7 41.7-51.1 60-119.2 51.3-174.7-3.4-21.6-11-41.4-22.9-57.4-17.1-23-40.8-35.5-68.7-36.1-38.9-0.9-80.1 21.6-112.9 61.7-41.7 51-60 119.2-51.2 174.6z"/>
			<path id="Layer" fill-rule="evenodd" class="s58" d="m337.4 142.2c7.4 47.1-2.3 101.7-30 148.6-27.3 46.3-67.2 77-109.3 84.2-30.3 5.2-58.5-2.3-81.6-21.7-56.6-47.6-63.3-153-14.9-235 27.4-46.4 67.2-77 109.4-84.3 30.2-5.1 58.4 2.4 81.5 21.8 24.3 20.3 39.3 51.3 44.9 86.4zm-264.5 124.4c5.5 34.9 20.4 65.6 44.4 85.7 22.8 19.2 50.7 26.6 80.6 21.5 41.7-7.2 81.3-37.7 108.4-83.6 48.2-81.5 41.6-186.3-14.6-233.5-22.8-19.1-50.6-26.5-80.5-21.4-41.8 7.1-81.3 37.6-108.5 83.6-27.6 46.7-37.2 101-29.8 147.7z"/>
			<path id="Layer" fill-rule="evenodd" class="s59" d="m344.2 154.1c5.8 36.2 1.9 76.2-13.1 114.1-19.9 50-55.6 87.9-98.1 104.1-31.6 12-64.8 10.7-93.5-3.8-69.7-35.1-97.3-137.2-61.5-227.6 19.8-50 55.6-88 98.1-104.1 31.6-12.1 64.8-10.7 93.5 3.8 40.5 20.4 66.7 63.3 74.6 113.5zm-278.1 100.7c7.9 49.7 33.9 92.3 74 112.5 28.8 14.5 60.7 15.8 92.4 3.8 42.2-16.1 77.7-53.7 97.3-103.4 15-37.7 18.8-77.5 13.2-113.5-7.9-49.7-33.9-92.3-74-112.5-28.8-14.5-60.8-15.8-92.4-3.7-42.2 16-77.7 53.7-97.4 103.4-14.9 37.7-18.8 77.4-13.1 113.4z"/>
			<path id="Layer" fill-rule="evenodd" class="s60" d="m354.2 165.3c3.8 24.3 3.3 50-2.3 75.9-11 51.1-40.4 94.7-80.5 119.7-32.4 20.2-69.5 26.5-104.5 17.8-81.2-20.2-130.5-114.8-109.7-210.8 11-51.1 40.3-94.8 80.4-119.8 32.4-20.1 69.5-26.5 104.5-17.8 59.4 14.8 101.7 69.3 112.1 135.1zm-298 78.1c10.3 65.2 52.2 119.3 111.1 133.9 34.6 8.6 71.3 2.4 103.4-17.6 39.8-24.8 68.9-68.2 79.9-118.9 20.5-95.3-28.2-189.2-108.8-209.2-34.6-8.6-71.4-2.4-103.4 17.6-39.8 24.8-68.9 68.1-79.9 118.9-5.5 25.7-6.1 51.3-2.3 75.3z"/>
			<path id="Layer" fill-rule="evenodd" class="s61" d="m366.7 173.3c1.9 12 2.7 24.4 2.2 37.1-1.7 47.7-20.4 91.9-52.6 124.5-32.3 32.7-74.2 49.8-118.1 48.3-90.7-3.3-161.6-86-158.1-184.5 3.5-98.5 80.1-176 170.8-172.8 79 2.8 143 66 155.8 147.4zm-322.9 62.2c12.7 80.8 76.1 143.4 154.4 146.2 43.6 1.6 85.1-15.4 117.1-47.8 32-32.3 50.5-76.2 52.2-123.6 0.4-12.5-0.3-24.9-2.2-36.8-12.7-80.7-76.2-143.4-154.5-146.2-89.8-3.2-165.7 73.7-169.2 171.4-0.5 12.6 0.3 24.9 2.2 36.8z"/>
			<path id="Layer" fill-rule="evenodd" class="s62" d="m381.1 176.7c15.4 97.4-51.4 189.1-148.7 204.4-97.4 15.4-189.1-51.4-204.5-148.7-15.3-97.4 51.4-189.1 148.8-204.5 97.3-15.3 189.1 51.4 204.4 148.8zm-351.7 55.4c15.2 96.6 106.2 162.8 202.7 147.5 96.6-15.2 162.8-106.1 147.5-202.7-15.2-96.6-106.1-162.7-202.7-147.5-96.6 15.2-162.7 106.2-147.5 202.7z"/>
		</g>
	</g>
	<g id="Clip-Path copy 3" clip-path="url(#cp4)">
		<g id="Layer" style="opacity: .4">
			<path id="Layer" fill-rule="evenodd" class="s63" d="m273 178c3.1 19.4 0.6 41-8.3 61.1-10.8 24.5-29.2 42.6-50.4 49.5-15.8 5.2-31.3 3.7-45.1-4.2-33.1-19-44.3-70.4-24.9-114.5 10.9-24.5 29.3-42.5 50.5-49.5 15.7-5.1 31.3-3.7 45 4.2 18.1 10.4 29.6 30.3 33.2 53.4zm-136.3 53c3.6 22.9 15 42.6 32.8 52.9 13.6 7.8 29 9.2 44.6 4.1 21-6.9 39.3-24.8 50-49.2 19.3-43.7 8.3-94.7-24.6-113.6-13.6-7.8-29-9.3-44.5-4.2-21.1 6.9-39.3 24.8-50.1 49.2-8.8 20-11.3 41.5-8.2 60.8z"/>
			<path id="Layer" fill-rule="evenodd" class="s64" d="m277.6 183.8c2.1 13.5 1.6 28-2.1 42.4-6.6 25.4-22.1 46.5-42.4 57.9-16.1 9-34.1 11.1-50.8 6.1-39.1-12-60.9-60.1-48.7-107.3 6.6-25.4 22-46.5 42.4-57.9 16.1-9 34.1-11.2 50.7-6.1 27.2 8.3 46.1 34.1 50.9 64.9zm-95.1 105.7c16.5 5 34.3 2.9 50.2-6 20.2-11.3 35.6-32.3 42.1-57.5 12.1-46.9-9.5-94.6-48.3-106.5-16.5-5-34.3-2.9-50.2 6-20.2 11.4-35.5 32.3-42.1 57.5-12.1 46.9 9.6 94.7 48.3 106.5z"/>
			<path id="Layer" fill-rule="evenodd" class="s65" d="m283.6 188.2c1.1 7.5 1.5 15.2 0.8 23.1-2 25-13.5 48.2-31.6 63.5-15.9 13.5-35.5 20-55.3 18.3-44.1-3.7-76.8-46.5-72.9-95.3 2-25.1 13.5-48.2 31.7-63.6 15.8-13.4 35.5-19.9 55.3-18.2 36.9 3.1 65.9 33.7 72 72.2zm-157.4 32.5c6 38.3 34.7 68.6 71.3 71.7 19.6 1.7 39.1-4.8 54.8-18.1 18-15.3 29.4-38.2 31.4-63.1 3.9-48.4-28.5-90.9-72.2-94.5-19.6-1.7-39.1 4.7-54.8 18.1-18 15.2-29.4 38.2-31.4 63-0.6 7.8-0.3 15.5 0.9 22.9z"/>
			<path id="Layer" fill-rule="evenodd" class="s66" d="m290.5 190.4q0.4 2.2 0.6 4.4c5.3 48.8-29.2 92.7-76.9 98.1-22.8 2.5-45.3-4-63.4-18.5-18.6-14.9-30.2-36.2-32.9-60.2-5.3-48.7 29.3-92.7 77-98 22.8-2.6 45.3 4 63.4 18.4 17.4 14 28.7 33.7 32.2 55.8zm-171.2 28.1c3.4 22 14.7 41.5 32 55.3 17.9 14.4 40.2 20.9 62.8 18.4 47.3-5.3 81.6-49 76.3-97.3-2.6-23.7-14.2-44.9-32.6-59.7-17.9-14.3-40.2-20.8-62.8-18.3-47.4 5.3-81.6 48.9-76.3 97.2q0.2 2.3 0.6 4.4z"/>
			<path id="Layer" fill-rule="evenodd" class="s67" d="m298.1 190.1c2.8 17.9-0.2 36.2-8.9 52.7-11.7 22.4-32.1 38.9-57.3 46.5-49.9 15-102.8-10.8-117.9-57.6-7-21.6-4.9-44.9 5.8-65.5 11.8-22.3 32.1-38.8 57.3-46.4 49.9-15 102.8 10.8 118 57.5q2 6.4 3 12.8zm-186.4 28.7q1 6.4 3 12.7c15 46.3 67.5 71.9 117 57 25-7.5 45.2-23.8 56.8-46 10.7-20.4 12.8-43.5 5.8-65-15-46.3-67.4-71.9-117-57-25 7.5-45.2 23.9-56.8 46.1-8.6 16.4-11.6 34.5-8.8 52.2z"/>
			<path id="Layer" fill-rule="evenodd" class="s68" d="m305.7 186.7c1.8 11.5 1 23.5-2.4 35.3-7.6 25.2-26.9 47.1-53.1 60.1-50.4 24.9-111.8 10.4-137-32.4-11.2-18.9-13.8-41.1-7.4-62.6 7.5-25.3 26.9-47.2 53.1-60.1 50.3-24.9 111.8-10.4 137 32.3 5 8.6 8.3 17.8 9.8 27.4zm-201.6 35.5c1.5 9.5 4.8 18.7 9.8 27.1 25 42.4 86 56.8 135.9 32.1 26-12.9 45.2-34.6 52.7-59.7 6.3-21.2 3.7-43.2-7.3-62-25-42.4-86-56.7-136-32-26 12.8-45.2 34.6-52.6 59.6-3.5 11.7-4.3 23.5-2.5 34.9z"/>
			<path id="Layer" fill-rule="evenodd" class="s69" d="m312.9 180.8c1 6.1 1.2 12.4 0.6 18.8-2.6 27.1-19.1 53.2-45.2 71.7-48.9 34.7-117.3 33.1-152.5-3.7-15.1-15.8-22.3-36.5-20.2-58.2 2.6-27 19-53.1 45.2-71.7 48.9-34.7 117.3-33 152.4 3.8 10.7 11.1 17.4 24.7 19.7 39.3zm-45.1 89.8c25.9-18.4 42.3-44.3 44.8-71 2.1-21.5-5-41.9-20-57.5-34.9-36.5-102.8-38.2-151.4-3.7-25.9 18.4-42.2 44.3-44.8 71.1-2 21.4 5.1 41.9 20 57.5 34.9 36.5 102.8 38.1 151.4 3.6z"/>
			<path id="Layer" fill-rule="evenodd" class="s70" d="m319.3 172.9q0.3 2.1 0.5 4.1c2.7 27.2-9.8 56.4-34.3 80.1-45.4 44-118.8 56.3-163.4 27.4-19.1-12.3-30.7-31-32.9-52.5-2.6-27.2 9.9-56.3 34.3-80 45.5-44 118.8-56.4 163.5-27.5 17.8 11.6 29.2 28.6 32.3 48.4zm-228.7 63.1c3.1 19.5 14.3 36.4 32 47.8 44.3 28.7 117.1 16.4 162.3-27.4 24.3-23.5 36.7-52.4 34-79.3-2-21.2-13.6-39.7-32.4-51.8-44.3-28.7-117.2-16.5-162.4 27.3-24.2 23.5-36.6 52.4-34 79.3q0.2 2.1 0.5 4.1z"/>
			<path id="Layer" fill-rule="evenodd" class="s71" d="m324.5 163.7c3.8 23.9-4.5 51.1-23.3 75.8-40 52.5-115.9 79.6-169.1 60.4-23.2-8.4-39.3-24.6-45.6-45.8-7.6-25.9 0.2-56.7 21.4-84.6 40-52.5 115.8-79.6 169.1-60.3 23.1 8.3 39.3 24.6 45.5 45.7q1.3 4.3 2 8.8zm-239.1 81.5q0.7 4.4 2 8.7c6.2 20.9 22.1 36.9 45 45.1 52.9 19.1 128.3-7.8 168-60 21.1-27.6 28.8-58.2 21.2-83.8-6.1-20.9-22.1-36.9-44.9-45.2-52.9-19.1-128.3 7.9-168.1 60.1-18.7 24.5-26.9 51.4-23.2 75.1z"/>
			<path id="Layer" fill-rule="evenodd" class="s72" d="m328.3 153.9c3.2 19.9-1.6 42.7-13.9 65.3-32.5 59.6-108.2 101.7-168.7 93.7-27.3-3.6-48-16.9-58.5-37.5-12-23.6-9.3-54.8 7.4-85.5 32.5-59.7 108.2-101.7 168.8-93.8 27.2 3.6 48 16.9 58.5 37.5 3.1 6.3 5.3 13.1 6.4 20.3zm-246.6 101.1c1.1 7.1 3.2 13.8 6.3 20 10.4 20.3 30.9 33.4 57.8 37 60.2 7.9 135.5-33.9 167.8-93.3 16.6-30.4 19.3-61.3 7.4-84.6-10.3-20.3-30.8-33.5-57.7-37-60.2-8-135.5 33.9-167.9 93.2-12.2 22.4-16.8 45-13.7 64.7z"/>
			<path id="Layer" fill-rule="evenodd" class="s73" d="m330.9 144.5c2.5 15.6 0.4 33.3-6.2 52-23.2 65.1-95.8 121.9-162 126.4-31.2 2.2-56.6-7.5-71.6-27.3-15.9-20.9-18.3-50.4-6.7-83 23.1-65.2 95.8-121.9 161.9-126.5 31.2-2.1 56.7 7.6 71.6 27.3 6.8 9 11.2 19.4 13 31.1zm-251.8 119.9c1.8 11.5 6.1 21.8 12.8 30.6 14.8 19.5 39.9 29.1 70.8 26.9 65.8-4.5 138-60.9 161.1-125.8 11.4-32.2 9.1-61.4-6.6-82.1-14.8-19.5-39.9-29-70.8-26.9-65.8 4.5-138.1 61-161.1 125.8-6.6 18.6-8.6 36.1-6.2 51.5z"/>
			<path id="Layer" fill-rule="evenodd" class="s74" d="m331.9 135.9c1.8 11.1 1.6 23.2-0.7 36.2-12.1 68.7-78.6 139.2-148.3 157.2-34.7 8.9-64.7 3.7-84.5-14.6-19-17.5-26.3-45.1-20.5-77.7 12-68.7 78.6-139.2 148.3-157.2 34.7-8.9 64.7-3.8 84.5 14.6 11.4 10.5 18.6 24.8 21.2 41.5zm-253.8 137.1c2.6 16.5 9.7 30.5 21 40.9 19.5 18.1 49.2 23.2 83.5 14.4 69.4-17.9 135.6-88.1 147.6-156.4 5.6-32.2-1.5-59.5-20.2-76.8-19.6-18-49.2-23.1-83.5-14.3-69.4 17.9-135.6 88-147.6 156.4-2.3 12.8-2.5 24.8-0.8 35.8z"/>
			<path id="Layer" fill-rule="evenodd" class="s75" d="m332.1 129.8q1.3 8.2 1.3 17c0.5 69.9-56.9 152.7-127.8 184.6-36.6 16.4-71.7 16.7-96.4 0.9-21.4-13.8-33.4-38.7-33.6-70.1-0.4-69.8 56.9-152.6 127.9-184.5 36.6-16.4 71.7-16.8 96.3-0.9 17.5 11.1 28.6 29.7 32.3 53zm-254.1 149.3c3.7 23 14.6 41.3 31.8 52.3 24.3 15.6 59.1 15.3 95.3-1 70.6-31.7 127.7-114.1 127.3-183.6-0.2-31-12-55.6-33.2-69.1-24.3-15.7-59-15.3-95.3 1-70.6 31.7-127.7 114.1-127.2 183.5q0.1 8.8 1.3 16.9z"/>
			<path id="Layer" fill-rule="evenodd" class="s76" d="m331.9 126.9c10.7 67.9-33.9 157.3-101.7 201.9-37.5 24.7-76.1 31.7-106.1 19.3-23.6-9.9-40-31.4-46-60.6-14-68.5 31.2-161.4 100.8-207.2 37.4-24.7 76.1-31.7 106-19.3 23.7 9.8 40 31.3 46 60.6q0.6 2.6 1 5.3zm-2.1-5.1c-5.9-28.9-22-50.1-45.3-59.8-29.6-12.2-67.9-5.2-105 19.2-69.2 45.6-114.2 138-100.3 206.1 5.9 28.8 22 50.1 45.4 59.7 29.6 12.3 67.8 5.3 105-19.1 69.2-45.6 114.2-138 100.2-206.1z"/>
			<path id="Layer" fill-rule="evenodd" class="s77" d="m332.1 127.8c9.8 62.5-20.3 143-76.1 193.4-36.4 32.9-77.3 47.5-112.4 40-26.1-5.6-46.1-22.7-57.9-49.4-28.2-64.4 2-164.8 67.4-224 36.3-32.9 77.3-47.5 112.3-40 26.2 5.6 46.2 22.7 57.9 49.5 4.2 9.5 7.1 19.7 8.8 30.5zm-254 153.3c1.7 10.7 4.6 20.8 8.7 30.2 11.6 26.4 31.3 43.3 57.1 48.8 34.6 7.4 75.2-7.1 111.3-39.7 65.1-58.9 95.1-158.7 67.1-222.6-11.6-26.4-31.4-43.3-57.1-48.8-34.7-7.4-75.2 7-111.3 39.7-55.5 50.2-85.6 130.2-75.8 192.4z"/>
			<path id="Layer" fill-rule="evenodd" class="s78" d="m333.6 132.9c8.8 55.8-9.6 124.3-51.5 175.7-33 40.4-74.5 63-113.9 62.1-28.2-0.6-52.3-13.3-69.7-36.7-42.6-57.3-29.8-162.1 28.5-233.5 33-40.4 74.5-63.1 113.9-62.2 28.2 0.7 52.3 13.4 69.6 36.7 12 16.2 19.6 36 23.1 57.9zm-256.9 143c3.4 21.7 10.9 41.4 22.8 57.4 17.1 23.1 40.9 35.6 68.7 36.2 39 0.9 80.1-21.6 112.9-61.7 41.7-51.1 60-119.2 51.3-174.7-3.4-21.6-11-41.4-22.9-57.4-17.1-23-40.8-35.5-68.7-36.1-38.9-0.9-80.1 21.6-112.9 61.7-41.7 51-60 119.2-51.2 174.6z"/>
			<path id="Layer" fill-rule="evenodd" class="s79" d="m337.4 142.2c7.4 47.1-2.3 101.7-30 148.6-27.3 46.3-67.2 77-109.3 84.2-30.3 5.2-58.5-2.3-81.6-21.7-56.6-47.6-63.3-153-14.9-235 27.4-46.4 67.2-77 109.4-84.3 30.2-5.1 58.4 2.4 81.5 21.8 24.3 20.3 39.3 51.3 44.9 86.4zm-264.5 124.4c5.5 34.9 20.4 65.6 44.4 85.7 22.8 19.2 50.7 26.6 80.6 21.5 41.7-7.2 81.3-37.7 108.4-83.6 48.2-81.5 41.6-186.3-14.6-233.5-22.8-19.1-50.6-26.5-80.5-21.4-41.8 7.1-81.3 37.6-108.5 83.6-27.6 46.7-37.2 101-29.8 147.7z"/>
			<path id="Layer" fill-rule="evenodd" class="s80" d="m344.2 154.1c5.8 36.2 1.9 76.2-13.1 114.1-19.9 50-55.6 87.9-98.1 104.1-31.6 12-64.8 10.7-93.5-3.8-69.7-35.1-97.3-137.2-61.5-227.6 19.8-50 55.6-88 98.1-104.1 31.6-12.1 64.8-10.7 93.5 3.8 40.5 20.4 66.7 63.3 74.6 113.5zm-278.1 100.7c7.9 49.7 33.9 92.3 74 112.5 28.8 14.5 60.7 15.8 92.4 3.8 42.2-16.1 77.7-53.7 97.3-103.4 15-37.7 18.8-77.5 13.2-113.5-7.9-49.7-33.9-92.3-74-112.5-28.8-14.5-60.8-15.8-92.4-3.7-42.2 16-77.7 53.7-97.4 103.4-14.9 37.7-18.8 77.4-13.1 113.4z"/>
			<path id="Layer" fill-rule="evenodd" class="s81" d="m354.2 165.3c3.8 24.3 3.3 50-2.3 75.9-11 51.1-40.4 94.7-80.5 119.7-32.4 20.2-69.5 26.5-104.5 17.8-81.2-20.2-130.5-114.8-109.7-210.8 11-51.1 40.3-94.8 80.4-119.8 32.4-20.1 69.5-26.5 104.5-17.8 59.4 14.8 101.7 69.3 112.1 135.1zm-298 78.1c10.3 65.2 52.2 119.3 111.1 133.9 34.6 8.6 71.3 2.4 103.4-17.6 39.8-24.8 68.9-68.2 79.9-118.9 20.5-95.3-28.2-189.2-108.8-209.2-34.6-8.6-71.4-2.4-103.4 17.6-39.8 24.8-68.9 68.1-79.9 118.9-5.5 25.7-6.1 51.3-2.3 75.3z"/>
			<path id="Layer" fill-rule="evenodd" class="s82" d="m366.7 173.3c1.9 12 2.7 24.4 2.2 37.1-1.7 47.7-20.4 91.9-52.6 124.5-32.3 32.7-74.2 49.8-118.1 48.3-90.7-3.3-161.6-86-158.1-184.5 3.5-98.5 80.1-176 170.8-172.8 79 2.8 143 66 155.8 147.4zm-322.9 62.2c12.7 80.8 76.1 143.4 154.4 146.2 43.6 1.6 85.1-15.4 117.1-47.8 32-32.3 50.5-76.2 52.2-123.6 0.4-12.5-0.3-24.9-2.2-36.8-12.7-80.7-76.2-143.4-154.5-146.2-89.8-3.2-165.7 73.7-169.2 171.4-0.5 12.6 0.3 24.9 2.2 36.8z"/>
			<path id="Layer" fill-rule="evenodd" class="s83" d="m381.1 176.7c15.4 97.4-51.4 189.1-148.7 204.4-97.4 15.4-189.1-51.4-204.5-148.7-15.3-97.4 51.4-189.1 148.8-204.5 97.3-15.3 189.1 51.4 204.4 148.8zm-351.7 55.4c15.2 96.6 106.2 162.8 202.7 147.5 96.6-15.2 162.8-106.1 147.5-202.7-15.2-96.6-106.1-162.7-202.7-147.5-96.6 15.2-162.7 106.2-147.5 202.7z"/>
		</g>
	</g>
</svg>