<svg width="132" height="44" viewBox="0 0 132 44" fill="none" xmlns="http://www.w3.org/2000/svg">
<path d="M14.0476 23.2649L2.18639 3.75125C1.74314 3.02204 0.61928 3.45263 0.77675 4.29133L6.64361 35.5387C6.77864 36.2579 7.74798 36.3978 8.08087 35.7462L14.0753 24.0125C14.1964 23.7754 14.1859 23.4924 14.0476 23.2649Z" fill="#E1E1E1"/>
<path d="M22.9721 5.15402L4.01603 0.462243C3.34298 0.295657 2.81174 1.03651 3.18548 1.62052L14.8037 19.7757C15.1182 20.2671 15.8444 20.2416 16.1236 19.7293L23.4615 6.26592C23.7021 5.82448 23.4601 5.27481 22.9721 5.15402Z" fill="#2CC784"/>
<path d="M27.9648 26.1681L27.9648 6.71041C27.9648 5.91427 26.902 5.64503 26.5229 6.34516L9.94355 36.971C9.56172 37.6763 10.3817 38.4206 11.0469 37.9725L27.6263 26.8044C27.8379 26.6619 27.9648 26.4234 27.9648 26.1681Z" fill="#B3B3B3"/>
<path d="M48.728 18.3518L43.2191 31.807H41.6498L43.4528 27.3998L39.7634 18.3518H41.4495L44.3209 25.7638L47.1588 18.3518H48.728ZM51.0397 16.866C50.7504 16.866 50.5055 16.7659 50.3052 16.5655C50.1049 16.3652 50.0047 16.1204 50.0047 15.831C50.0047 15.5416 50.1049 15.2968 50.3052 15.0965C50.5055 14.8962 50.7504 14.796 51.0397 14.796C51.318 14.796 51.5517 14.8962 51.7409 15.0965C51.9412 15.2968 52.0414 15.5416 52.0414 15.831C52.0414 16.1204 51.9412 16.3652 51.7409 16.5655C51.5517 16.7659 51.318 16.866 51.0397 16.866ZM51.7743 18.3518V27.5H50.2551V18.3518H51.7743ZM62.7103 22.5753C62.7103 22.8647 62.6936 23.1707 62.6602 23.4935H55.3483C55.4039 24.3949 55.71 25.1017 56.2665 25.6136C56.8341 26.1144 57.5185 26.3648 58.3198 26.3648C58.9764 26.3648 59.5218 26.2146 59.9558 25.9141C60.401 25.6025 60.7126 25.1907 60.8907 24.6787H62.5267C62.2818 25.558 61.7921 26.2758 61.0576 26.8322C60.3231 27.3776 59.4105 27.6502 58.3198 27.6502C57.4517 27.6502 56.6727 27.4555 55.9827 27.066C55.3038 26.6764 54.7696 26.1255 54.3801 25.4133C53.9905 24.6899 53.7958 23.8552 53.7958 22.9092C53.7958 21.9632 53.985 21.1341 54.3634 20.4218C54.7418 19.7095 55.2704 19.1642 55.9493 18.7858C56.6393 18.3963 57.4295 18.2015 58.3198 18.2015C59.1879 18.2015 59.9558 18.3907 60.6236 18.7691C61.2913 19.1475 61.8033 19.6706 62.1594 20.3383C62.5267 20.995 62.7103 21.7406 62.7103 22.5753ZM61.1411 22.2581C61.1411 21.6794 61.0131 21.1842 60.7571 20.7724C60.5011 20.3495 60.1506 20.0323 59.7054 19.8208C59.2714 19.5983 58.7872 19.487 58.253 19.487C57.4851 19.487 56.8285 19.7318 56.2832 20.2215C55.749 20.7112 55.4429 21.3901 55.365 22.2581H61.1411ZM66.2346 15.1466V27.5H64.7155V15.1466H66.2346ZM68.2562 22.8925C68.2562 21.9576 68.4454 21.1396 68.8237 20.4385C69.2021 19.7262 69.7197 19.1753 70.3763 18.7858C71.044 18.3963 71.7897 18.2015 72.6133 18.2015C73.3255 18.2015 73.9877 18.3685 74.5998 18.7023C75.2119 19.0251 75.6794 19.4536 76.0021 19.9878V15.1466H77.5379V27.5H76.0021V25.7805C75.7016 26.3259 75.2564 26.7766 74.6666 27.1327C74.0767 27.4777 73.3867 27.6502 72.5966 27.6502C71.7841 27.6502 71.044 27.4499 70.3763 27.0493C69.7197 26.6486 69.2021 26.0866 68.8237 25.3632C68.4454 24.6398 68.2562 23.8162 68.2562 22.8925ZM76.0021 22.9092C76.0021 22.2192 75.863 21.6182 75.5848 21.1063C75.3065 20.5943 74.9281 20.2048 74.4496 19.9377C73.9821 19.6595 73.4646 19.5203 72.897 19.5203C72.3295 19.5203 71.8119 19.6539 71.3445 19.921C70.8771 20.1881 70.5043 20.5776 70.226 21.0896C69.9478 21.6015 69.8087 22.2025 69.8087 22.8925C69.8087 23.5936 69.9478 24.2057 70.226 24.7288C70.5043 25.2408 70.8771 25.6359 71.3445 25.9141C71.8119 26.1812 72.3295 26.3147 72.897 26.3147C73.4646 26.3147 73.9821 26.1812 74.4496 25.9141C74.9281 25.6359 75.3065 25.2408 75.5848 24.7288C75.863 24.2057 76.0021 23.5992 76.0021 22.9092Z" fill="#E1E1E1"/>
<path d="M84.1732 26.0977L87.0112 18.3518H88.6305L85.0413 27.5H83.2717L79.6826 18.3518H81.3186L84.1732 26.0977ZM98.4723 22.5753C98.4723 22.8647 98.4556 23.1707 98.4222 23.4935H91.1103C91.1659 24.3949 91.472 25.1017 92.0284 25.6136C92.596 26.1144 93.2805 26.3648 94.0818 26.3648C94.7384 26.3648 95.2837 26.2146 95.7178 25.9141C96.163 25.6025 96.4746 25.1907 96.6526 24.6787H98.2886C98.0438 25.558 97.5541 26.2758 96.8196 26.8322C96.085 27.3776 95.1725 27.6502 94.0818 27.6502C93.2137 27.6502 92.4347 27.4555 91.7447 27.066C91.0658 26.6764 90.5316 26.1255 90.142 25.4133C89.7525 24.6899 89.5578 23.8552 89.5578 22.9092C89.5578 21.9632 89.747 21.1341 90.1253 20.4218C90.5037 19.7095 91.0324 19.1642 91.7113 18.7858C92.4013 18.3963 93.1915 18.2015 94.0818 18.2015C94.9499 18.2015 95.7178 18.3907 96.3855 18.7691C97.0533 19.1475 97.5652 19.6706 97.9214 20.3383C98.2886 20.995 98.4723 21.7406 98.4723 22.5753ZM96.903 22.2581C96.903 21.6794 96.7751 21.1842 96.5191 20.7724C96.2631 20.3495 95.9125 20.0323 95.4674 19.8208C95.0333 19.5983 94.5492 19.487 94.015 19.487C93.2471 19.487 92.5905 19.7318 92.0451 20.2215C91.5109 20.7112 91.2049 21.3901 91.127 22.2581H96.903ZM103.716 27.6502C103.015 27.6502 102.386 27.5334 101.83 27.2997C101.273 27.0548 100.834 26.721 100.511 26.298C100.188 25.864 100.01 25.3688 99.9767 24.8123H101.546C101.59 25.2686 101.802 25.6414 102.18 25.9308C102.57 26.2201 103.076 26.3648 103.699 26.3648C104.278 26.3648 104.734 26.2368 105.068 25.9809C105.402 25.7249 105.569 25.4021 105.569 25.0126C105.569 24.612 105.391 24.317 105.035 24.1278C104.679 23.9275 104.128 23.7328 103.382 23.5436C102.703 23.3655 102.147 23.1874 101.713 23.0094C101.29 22.8202 100.923 22.5475 100.611 22.1914C100.311 21.8241 100.16 21.3455 100.16 20.7557C100.16 20.2883 100.299 19.8598 100.578 19.4703C100.856 19.0807 101.251 18.7747 101.763 18.5521C102.275 18.3184 102.859 18.2015 103.516 18.2015C104.529 18.2015 105.347 18.4575 105.97 18.9694C106.593 19.4814 106.927 20.1825 106.971 21.0729H105.452C105.419 20.5943 105.224 20.2104 104.868 19.921C104.523 19.6316 104.056 19.487 103.466 19.487C102.92 19.487 102.486 19.6038 102.164 19.8375C101.841 20.0712 101.679 20.3773 101.679 20.7557C101.679 21.0562 101.774 21.3066 101.963 21.5069C102.164 21.6961 102.408 21.8519 102.698 21.9743C102.998 22.0856 103.41 22.2136 103.933 22.3583C104.59 22.5364 105.124 22.7144 105.536 22.8925C105.947 23.0594 106.298 23.3154 106.587 23.6604C106.888 24.0054 107.044 24.4562 107.055 25.0126C107.055 25.5134 106.916 25.9642 106.638 26.3648C106.359 26.7655 105.964 27.0827 105.452 27.3164C104.951 27.539 104.373 27.6502 103.716 27.6502ZM111.052 19.6038V24.9959C111.052 25.4411 111.147 25.7583 111.336 25.9475C111.525 26.1255 111.854 26.2146 112.321 26.2146H113.44V27.5H112.071C111.225 27.5 110.591 27.3052 110.168 26.9157C109.745 26.5262 109.533 25.8863 109.533 24.9959V19.6038H108.348V18.3518H109.533V16.048H111.052V18.3518H113.44V19.6038H111.052ZM119.27 27.6502C118.413 27.6502 117.634 27.4555 116.933 27.066C116.243 26.6764 115.698 26.1255 115.297 25.4133C114.907 24.6899 114.713 23.8552 114.713 22.9092C114.713 21.9743 114.913 21.1508 115.314 20.4385C115.725 19.7151 116.282 19.1642 116.983 18.7858C117.684 18.3963 118.469 18.2015 119.337 18.2015C120.205 18.2015 120.99 18.3963 121.691 18.7858C122.392 19.1642 122.943 19.7095 123.343 20.4218C123.755 21.1341 123.961 21.9632 123.961 22.9092C123.961 23.8552 123.75 24.6899 123.327 25.4133C122.915 26.1255 122.353 26.6764 121.641 27.066C120.928 27.4555 120.138 27.6502 119.27 27.6502ZM119.27 26.3147C119.815 26.3147 120.327 26.1868 120.806 25.9308C121.284 25.6748 121.668 25.2908 121.958 24.7789C122.258 24.267 122.408 23.6437 122.408 22.9092C122.408 22.1747 122.264 21.5514 121.974 21.0395C121.685 20.5275 121.307 20.1491 120.839 19.9043C120.372 19.6483 119.865 19.5203 119.32 19.5203C118.764 19.5203 118.252 19.6483 117.784 19.9043C117.328 20.1491 116.961 20.5275 116.683 21.0395C116.404 21.5514 116.265 22.1747 116.265 22.9092C116.265 23.6549 116.399 24.2837 116.666 24.7956C116.944 25.3075 117.311 25.6915 117.768 25.9475C118.224 26.1923 118.725 26.3147 119.27 26.3147ZM127.478 19.8375C127.745 19.3145 128.123 18.9082 128.613 18.6189C129.114 18.3295 129.72 18.1848 130.432 18.1848V19.7541H130.032C128.329 19.7541 127.478 20.6778 127.478 22.5252V27.5H125.958V18.3518H127.478V19.8375Z" fill="#2CC784"/>
</svg>
